<?xml version="1.0" encoding="utf-8"?>
<!-- Generator: Adobe Illustrator 17.0.0, SVG Export Plug-In . SVG Version: 6.00 Build 0)  -->
<!DOCTYPE svg PUBLIC "-//W3C//DTD SVG 1.1//EN" "http://www.w3.org/Graphics/SVG/1.1/DTD/svg11.dtd" [
	<!ENTITY ns_extend "http://ns.adobe.com/Extensibility/1.0/">
	<!ENTITY ns_ai "http://ns.adobe.com/AdobeIllustrator/10.0/">
	<!ENTITY ns_graphs "http://ns.adobe.com/Graphs/1.0/">
	<!ENTITY ns_vars "http://ns.adobe.com/Variables/1.0/">
	<!ENTITY ns_imrep "http://ns.adobe.com/ImageReplacement/1.0/">
	<!ENTITY ns_sfw "http://ns.adobe.com/SaveForWeb/1.0/">
	<!ENTITY ns_custom "http://ns.adobe.com/GenericCustomNamespace/1.0/">
	<!ENTITY ns_adobe_xpath "http://ns.adobe.com/XPath/1.0/">
]>
<svg version="1.1" id="Capa_1" xmlns:x="&ns_extend;" xmlns:i="&ns_ai;" xmlns:graph="&ns_graphs;"
	 xmlns="http://www.w3.org/2000/svg" xmlns:xlink="http://www.w3.org/1999/xlink" x="0px" y="0px" width="7.952px" height="18px"
	 viewBox="369.758 384.749 7.952 18" enable-background="new 369.758 384.749 7.952 18" xml:space="preserve">
<metadata>
	<sfw  xmlns="&ns_sfw;">
		<slices></slices>
		<sliceSourceBounds  width="7.952" height="18" x="849.258" y="117.751" bottomLeftOrigin="true"></sliceSourceBounds>
	</sfw>
</metadata>
<g>
	<g>
		<path d="M377.472,400.805l-0.251,1.028c-0.754,0.298-1.357,0.524-1.806,0.68c-0.449,0.156-0.972,0.234-1.566,0.234
			c-0.914,0-1.624-0.224-2.13-0.668c-0.507-0.447-0.76-1.012-0.76-1.697c0-0.266,0.019-0.539,0.057-0.817
			c0.038-0.279,0.1-0.592,0.183-0.943l0.943-3.337c0.084-0.319,0.155-0.622,0.213-0.908c0.057-0.284,0.086-0.547,0.086-0.782
			c0-0.426-0.088-0.724-0.264-0.892c-0.176-0.167-0.511-0.252-1.009-0.252c-0.244,0-0.494,0.039-0.749,0.114
			c-0.256,0.076-0.475,0.149-0.66,0.217l0.252-1.029c0.618-0.251,1.208-0.467,1.773-0.645c0.565-0.18,1.098-0.269,1.603-0.269
			c0.907,0,1.607,0.219,2.099,0.658c0.491,0.439,0.737,1.007,0.737,1.709c0,0.145-0.016,0.401-0.05,0.766
			c-0.034,0.366-0.097,0.701-0.189,1.007l-0.939,3.324c-0.077,0.267-0.146,0.572-0.206,0.915c-0.062,0.341-0.092,0.602-0.092,0.777
			c0,0.441,0.098,0.743,0.296,0.903c0.199,0.16,0.541,0.24,1.027,0.24c0.228,0,0.488-0.041,0.777-0.12
			C377.132,400.937,377.342,400.867,377.472,400.805z M377.71,386.85c0,0.579-0.218,1.074-0.657,1.481
			c-0.438,0.408-0.965,0.613-1.582,0.613c-0.618,0-1.147-0.204-1.589-0.613c-0.441-0.407-0.663-0.901-0.663-1.481
			c0-0.577,0.222-1.073,0.663-1.485c0.441-0.411,0.971-0.616,1.589-0.616c0.616,0,1.143,0.206,1.582,0.616
			C377.493,385.776,377.71,386.273,377.71,386.85z"/>
	</g>
</g>
</svg>
