<?xml version="1.0" encoding="utf-8"?>
<!-- Generator: Adobe Illustrator 17.0.0, SVG Export Plug-In . SVG Version: 6.00 Build 0)  -->
<!DOCTYPE svg PUBLIC "-//W3C//DTD SVG 1.1//EN" "http://www.w3.org/Graphics/SVG/1.1/DTD/svg11.dtd">
<svg version="1.1" id="Layer_1" xmlns="http://www.w3.org/2000/svg" xmlns:xlink="http://www.w3.org/1999/xlink" x="0px" y="0px"
	 width="71px" height="35.407px" viewBox="0 0 71 35.407" enable-background="new 0 0 71 35.407" xml:space="preserve">
<path d="M35.322,35.407c-11.774,0-23.548,0-35.322,0C0,23.605,0,11.797,0,0c11.774,0,23.548,0,35.322,0
	c0.011,0.152,0.028,0.305,0.028,0.457c0,11.492,0,22.983,0,34.486C35.356,35.091,35.339,35.254,35.322,35.407z M15.981,20.013
	c-0.034-0.011-0.068-0.011-0.102-0.017c-0.655-2.31-1.304-4.614-1.948-6.923c-0.085-0.305-0.22-0.491-0.587-0.457
	s-0.74,0.017-1.107,0c-0.288-0.017-0.418,0.102-0.491,0.39c-0.457,1.66-0.937,3.309-1.412,4.969c-0.198,0.683-0.39,1.372-0.587,2.05
	c-0.028,0-0.062,0-0.085-0.011c-0.649-2.462-1.293-4.919-1.943-7.398c-0.672,0-1.338,0-1.999,0c-0.305,0-0.384,0.102-0.282,0.418
	c0.39,1.208,0.751,2.428,1.112,3.642c0.599,1.943,1.192,3.88,1.807,5.822c0.051,0.147,0.232,0.35,0.367,0.356
	c0.689,0.034,1.389,0.017,2.118,0.017c0.655-2.248,1.31-4.478,1.993-6.81c0.683,2.344,1.338,4.574,1.976,6.776
	c0.853,0,1.649,0,2.4,0c1.045-3.416,2.084-6.782,3.14-10.215c-0.808,0-1.491-0.017-2.168,0.017
	c-0.113,0.011-0.282,0.186-0.316,0.316c-0.452,1.66-0.887,3.326-1.321,4.998C16.342,18.641,16.156,19.335,15.981,20.013z
	 M22.046,12.661c0,3.416,0,6.793,0,10.187c2.417,0,4.817,0,7.217,0c0-0.672,0-1.304,0-1.982c-1.66,0-3.292,0-4.952,0
	c0-0.734,0-1.423,0-2.152c1.508,0,2.987,0,4.467,0c0-0.7,0-1.338,0-2.033c-1.508,0-2.987,0-4.461,0c0-0.7,0-1.338,0-2.027
	c1.626,0,3.224,0,4.817,0c0-0.689,0-1.327,0-1.982C26.756,12.661,24.418,12.661,22.046,12.661z M39.332,12.768
	c1.745,0,3.45-0.051,5.144,0.028c0.875,0.045,1.745,0.322,2.276,1.124c0.717,1.079,0.457,2.835-0.858,3.416
	c-0.062,0.028-0.113,0.068-0.22,0.13c0.282,0.147,0.525,0.254,0.751,0.39c0.977,0.621,1.22,1.547,1.073,2.62
	c-0.13,0.96-0.723,1.592-1.609,1.897c-0.582,0.198-1.203,0.333-1.813,0.356c-1.474,0.051-2.948,0.028-4.416,0.028
	c-0.096,0-0.186-0.017-0.305-0.028C39.332,19.409,39.332,16.105,39.332,12.768z M41.427,21.131c1.022-0.051,1.965-0.068,2.914-0.147
	c0.7-0.062,1.112-0.582,1.096-1.271c-0.017-0.7-0.452-1.208-1.141-1.242c-0.858-0.051-1.728-0.034-2.598-0.028
	c-0.096,0-0.254,0.147-0.265,0.22C41.415,19.46,41.427,20.245,41.427,21.131z M41.415,16.822c0.836,0,1.626,0.028,2.411-0.011
	c0.7-0.028,1.175-0.474,1.192-1.028c0.028-0.785-0.271-1.175-1.09-1.259c-0.74-0.079-1.496-0.068-2.248-0.068
	c-0.085,0-0.248,0.169-0.254,0.271C41.41,15.399,41.415,16.083,41.415,16.822z M59.525,17.76c0.034,3.038-2.061,5.269-5.399,5.229
	c-3.174-0.034-5.229-2.185-5.218-5.246c0.011-3.032,2.061-5.235,5.382-5.201C57.515,12.565,59.542,14.727,59.525,17.76z
	 M54.211,21.013c2.061,0.062,3.168-1.44,3.174-3.191c0.017-2.027-1.192-3.27-3.14-3.32c-2.044-0.045-3.27,1.457-3.202,3.433
	C51.106,19.46,52.099,21.063,54.211,21.013z M67.459,17.692c1.237,1.225,2.4,2.383,3.541,3.524c-0.542,0.525-1.028,0.988-1.53,1.474
	c-1.073-1.096-2.219-2.276-3.416-3.507c-1.259,1.259-2.434,2.428-3.586,3.575c-0.52-0.503-1.005-0.96-1.542-1.48
	c1.011-0.994,2.01-1.976,3.004-2.965c0.57-0.559,0.57-0.559-0.011-1.141c-0.988-0.977-1.976-1.96-2.97-2.936
	c0.525-0.491,1.022-0.96,1.581-1.491c1.112,1.135,2.276,2.315,3.45,3.507c1.186-1.192,2.332-2.36,3.484-3.518
	c0.508,0.52,0.977,0.994,1.508,1.53C69.831,15.382,68.651,16.534,67.459,17.692z"/>
</svg>
