<?xml version="1.0" encoding="utf-8"?>
<!-- Generator: Adobe Illustrator 17.0.0, SVG Export Plug-In . SVG Version: 6.00 Build 0)  -->
<!DOCTYPE svg PUBLIC "-//W3C//DTD SVG 1.1//EN" "http://www.w3.org/Graphics/SVG/1.1/DTD/svg11.dtd" [
	<!ENTITY ns_extend "http://ns.adobe.com/Extensibility/1.0/">
	<!ENTITY ns_ai "http://ns.adobe.com/AdobeIllustrator/10.0/">
	<!ENTITY ns_graphs "http://ns.adobe.com/Graphs/1.0/">
	<!ENTITY ns_vars "http://ns.adobe.com/Variables/1.0/">
	<!ENTITY ns_imrep "http://ns.adobe.com/ImageReplacement/1.0/">
	<!ENTITY ns_sfw "http://ns.adobe.com/SaveForWeb/1.0/">
	<!ENTITY ns_custom "http://ns.adobe.com/GenericCustomNamespace/1.0/">
	<!ENTITY ns_adobe_xpath "http://ns.adobe.com/XPath/1.0/">
]>
<svg version="1.1" id="Layer_1" xmlns:x="&ns_extend;" xmlns:i="&ns_ai;" xmlns:graph="&ns_graphs;"
	 xmlns="http://www.w3.org/2000/svg" xmlns:xlink="http://www.w3.org/1999/xlink" x="0px" y="0px" width="317.103px"
	 height="40.67px" viewBox="0 0 317.103 40.67" enable-background="new 0 0 317.103 40.67" xml:space="preserve">
<metadata>
	<sfw  xmlns="&ns_sfw;">
		<slices></slices>
		<sliceSourceBounds  width="317.103" height="40.67" x="246.5" y="-442.543" bottomLeftOrigin="true"></sliceSourceBounds>
	</sfw>
</metadata>
<g>
	<g>
		<rect y="0.46" fill="#FFFFFF" width="1" height="40"/>
	</g>
	<g>
		<path fill="#FFFFFF" d="M26.7,18.265c-0.13-0.13-0.195-0.282-0.195-0.455V4.602h-4.68v2.184c0,2.947-0.191,5.235-0.572,6.864
			c-0.381,1.629-1.088,2.83-2.119,3.601c-1.031,0.771-2.535,1.174-4.511,1.209c-0.173,0-0.33-0.069-0.468-0.208
			c-0.139-0.139-0.208-0.294-0.208-0.468v-2.886c0-0.364,0.217-0.589,0.65-0.676c0.918-0.156,1.568-0.919,1.95-2.288
			s0.572-3.293,0.572-5.772V0.91c0-0.191,0.065-0.347,0.195-0.468c0.13-0.121,0.29-0.182,0.481-0.182h12.922
			c0.191,0,0.351,0.065,0.481,0.195c0.13,0.13,0.195,0.291,0.195,0.481V17.81c0,0.191-0.065,0.347-0.195,0.468
			c-0.13,0.122-0.29,0.182-0.481,0.182h-3.562C26.981,18.46,26.83,18.395,26.7,18.265z"/>
		<path fill="#FFFFFF" d="M34.851,18.265c-0.122-0.13-0.182-0.29-0.182-0.481V0.936c0-0.19,0.065-0.351,0.195-0.481
			s0.29-0.195,0.481-0.195h3.536c0.19,0,0.351,0.065,0.481,0.195s0.195,0.291,0.195,0.481v10.166l7.176-10.348
			c0.208-0.329,0.502-0.494,0.884-0.494h3.198c0.19,0,0.347,0.065,0.468,0.195s0.182,0.291,0.182,0.481V17.81
			c0,0.173-0.061,0.325-0.182,0.455c-0.121,0.13-0.277,0.195-0.468,0.195h-3.562c-0.191,0-0.351-0.061-0.481-0.182
			c-0.13-0.121-0.195-0.277-0.195-0.468V8.034l-7.176,9.932c-0.104,0.156-0.221,0.278-0.351,0.364
			c-0.13,0.087-0.308,0.13-0.533,0.13h-3.198C35.128,18.46,34.972,18.395,34.851,18.265z"/>
		<path fill="#FFFFFF" d="M54.923,18.278c-0.122-0.121-0.182-0.277-0.182-0.468V0.936c0-0.19,0.061-0.351,0.182-0.481
			c0.121-0.13,0.277-0.195,0.468-0.195h3.562c0.19,0,0.351,0.065,0.481,0.195s0.195,0.291,0.195,0.481v6.162h6.136V0.936
			c0-0.19,0.065-0.351,0.195-0.481c0.13-0.13,0.29-0.195,0.481-0.195h3.536c0.19,0,0.351,0.065,0.481,0.195
			c0.13,0.13,0.195,0.291,0.195,0.481V17.81c0,0.191-0.065,0.347-0.195,0.468c-0.13,0.122-0.291,0.182-0.481,0.182H66.44
			c-0.191,0-0.351-0.061-0.481-0.182c-0.13-0.121-0.195-0.277-0.195-0.468v-6.37h-6.136v6.37c0,0.191-0.065,0.347-0.195,0.468
			c-0.13,0.122-0.291,0.182-0.481,0.182h-3.562C55.2,18.46,55.044,18.399,54.923,18.278z"/>
		<path fill="#FFFFFF" d="M74.111,18.265c-0.122-0.13-0.182-0.29-0.182-0.481V0.936c0-0.19,0.065-0.351,0.195-0.481
			s0.29-0.195,0.481-0.195h3.536c0.19,0,0.351,0.065,0.481,0.195s0.195,0.291,0.195,0.481v10.166l7.176-10.348
			c0.208-0.329,0.502-0.494,0.884-0.494h3.198c0.19,0,0.347,0.065,0.468,0.195s0.182,0.291,0.182,0.481V17.81
			c0,0.173-0.061,0.325-0.182,0.455c-0.121,0.13-0.277,0.195-0.468,0.195h-3.562c-0.191,0-0.351-0.061-0.481-0.182
			c-0.13-0.121-0.195-0.277-0.195-0.468V8.034l-7.176,9.932c-0.104,0.156-0.221,0.278-0.351,0.364
			c-0.13,0.087-0.308,0.13-0.533,0.13h-3.198C74.388,18.46,74.232,18.395,74.111,18.265z"/>
		<path fill="#FFFFFF" d="M108.612,0.442c0.121,0.122,0.182,0.277,0.182,0.468v16.9c0,0.173-0.061,0.325-0.182,0.455
			c-0.122,0.13-0.277,0.195-0.468,0.195h-3.562c-0.173,0-0.325-0.065-0.455-0.195c-0.13-0.13-0.195-0.282-0.195-0.455v-5.538h-2.08
			l-2.938,5.486c-0.26,0.468-0.624,0.702-1.092,0.702h-3.64c-0.156,0-0.291-0.056-0.403-0.169s-0.169-0.238-0.169-0.377
			c0-0.086,0.026-0.182,0.078-0.286l3.536-6.058c-1.006-0.468-1.79-1.157-2.353-2.067c-0.563-0.91-0.845-1.972-0.845-3.185
			c0-1.178,0.277-2.227,0.832-3.146c0.555-0.918,1.369-1.633,2.444-2.145c1.075-0.511,2.357-0.767,3.848-0.767h6.994
			C108.335,0.26,108.491,0.321,108.612,0.442z M103.933,4.004h-2.678c-0.676,0-1.205,0.212-1.586,0.637
			c-0.381,0.425-0.572,0.984-0.572,1.677c0,0.693,0.182,1.227,0.546,1.599c0.364,0.373,0.901,0.559,1.612,0.559h2.678V4.004z"/>
		<path fill="#FFFFFF" d="M117.946,18.291c-0.104-0.113-0.156-0.255-0.156-0.429V0.884c0-0.19,0.052-0.342,0.156-0.455
			s0.243-0.169,0.416-0.169h11.258c0.19,0,0.342,0.057,0.455,0.169c0.112,0.113,0.169,0.264,0.169,0.455v0.962
			c0,0.191-0.057,0.338-0.169,0.442c-0.113,0.104-0.265,0.156-0.455,0.156h-9.386V7.8h5.226c1.803,0,3.215,0.473,4.238,1.417
			c1.023,0.945,1.534,2.223,1.534,3.835c0,0.902-0.217,1.764-0.65,2.587c-0.434,0.823-1.083,1.5-1.95,2.028
			c-0.867,0.529-1.924,0.793-3.172,0.793h-7.098C118.188,18.46,118.05,18.404,117.946,18.291z M125.148,16.406
			c1.109,0,1.984-0.325,2.626-0.975c0.641-0.65,0.962-1.46,0.962-2.431s-0.303-1.746-0.91-2.327c-0.607-0.581-1.5-0.871-2.678-0.871
			h-4.914v6.604H125.148z"/>
		<path fill="#FFFFFF" d="M134.299,18.291c-0.104-0.113-0.156-0.255-0.156-0.429V0.884c0-0.19,0.052-0.342,0.156-0.455
			s0.243-0.169,0.416-0.169h10.686c0.19,0,0.342,0.057,0.455,0.169s0.169,0.264,0.169,0.455V1.82c0,0.174-0.056,0.312-0.169,0.416
			s-0.265,0.156-0.455,0.156h-8.866V8.19h8.294c0.19,0,0.342,0.057,0.455,0.169c0.112,0.113,0.169,0.265,0.169,0.455v0.884
			c0,0.174-0.057,0.317-0.169,0.429c-0.113,0.113-0.265,0.169-0.455,0.169h-8.294v6.006h9.074c0.19,0,0.342,0.057,0.455,0.169
			c0.112,0.113,0.169,0.264,0.169,0.455v0.936c0,0.174-0.061,0.316-0.182,0.429s-0.269,0.169-0.442,0.169h-10.894
			C134.542,18.46,134.403,18.404,134.299,18.291z"/>
		<path fill="#FFFFFF" d="M151.551,18.109c-0.979-0.407-1.738-0.958-2.275-1.651c-0.538-0.693-0.85-1.473-0.936-2.34v-0.052
			c0-0.139,0.052-0.251,0.156-0.338c0.104-0.086,0.234-0.13,0.39-0.13h1.196c0.19,0,0.347,0.039,0.468,0.117
			c0.121,0.078,0.216,0.23,0.286,0.455c0.208,0.746,0.672,1.335,1.391,1.768c0.719,0.434,1.651,0.65,2.795,0.65
			c1.248,0,2.301-0.299,3.159-0.897s1.287-1.391,1.287-2.379c0-1.022-0.373-1.82-1.118-2.392c-0.746-0.572-1.759-0.858-3.042-0.858
			h-1.872c-0.173,0-0.312-0.056-0.416-0.169s-0.156-0.264-0.156-0.455V8.606c0-0.19,0.052-0.342,0.156-0.455
			c0.104-0.112,0.243-0.169,0.416-0.169h1.768c1.126,0,2.019-0.247,2.678-0.741c0.658-0.494,0.988-1.243,0.988-2.249
			c0-0.849-0.364-1.538-1.092-2.067c-0.728-0.528-1.621-0.793-2.678-0.793c-1.109,0-2.02,0.2-2.73,0.598
			c-0.711,0.399-1.153,1.023-1.326,1.872c-0.087,0.347-0.295,0.52-0.624,0.52h-1.274c-0.156,0-0.295-0.052-0.416-0.156
			s-0.173-0.234-0.156-0.39c0.139-1.387,0.767-2.496,1.885-3.328C151.577,0.416,153.132,0,155.125,0c1.317,0,2.444,0.226,3.38,0.676
			c0.936,0.451,1.642,1.049,2.119,1.794c0.477,0.746,0.715,1.543,0.715,2.392c0,0.85-0.165,1.625-0.494,2.327
			c-0.33,0.702-0.858,1.27-1.586,1.703c0.901,0.451,1.577,1.062,2.028,1.833c0.451,0.771,0.676,1.651,0.676,2.639
			c0,1.058-0.282,1.989-0.845,2.795c-0.563,0.806-1.37,1.434-2.418,1.885c-1.049,0.451-2.267,0.676-3.653,0.676
			C153.696,18.72,152.53,18.516,151.551,18.109z"/>
		<path fill="#FFFFFF" d="M166.695,16.939c-1.231-1.187-1.881-2.977-1.95-5.369c-0.017-0.52-0.026-1.256-0.026-2.21
			c0-0.953,0.009-1.681,0.026-2.184c0.069-2.357,0.741-4.143,2.015-5.356c1.274-1.213,2.994-1.82,5.161-1.82
			c2.167,0,3.882,0.607,5.148,1.82c1.265,1.213,1.933,2.999,2.002,5.356c0.035,1.006,0.052,1.734,0.052,2.184
			c0,0.434-0.018,1.17-0.052,2.21c-0.069,2.392-0.715,4.182-1.937,5.369c-1.222,1.188-2.96,1.781-5.213,1.781
			C169.668,18.72,167.926,18.126,166.695,16.939z M175.25,15.301c0.832-0.84,1.282-2.127,1.352-3.861
			c0.035-1.04,0.052-1.733,0.052-2.08c0-0.381-0.018-1.074-0.052-2.08c-0.069-1.733-0.52-3.024-1.352-3.874
			c-0.832-0.849-1.942-1.274-3.328-1.274c-1.387,0-2.5,0.425-3.341,1.274c-0.841,0.85-1.287,2.141-1.339,3.874
			c-0.018,0.503-0.026,1.196-0.026,2.08c0,0.867,0.008,1.56,0.026,2.08c0.052,1.733,0.494,3.021,1.326,3.861
			c0.832,0.841,1.95,1.261,3.354,1.261C173.308,16.562,174.417,16.142,175.25,15.301z"/>
		<path fill="#FFFFFF" d="M182.867,18.291c-0.104-0.113-0.156-0.255-0.156-0.429V0.884c0-0.19,0.052-0.342,0.156-0.455
			s0.243-0.169,0.416-0.169h12.766c0.19,0,0.342,0.057,0.455,0.169c0.112,0.113,0.169,0.264,0.169,0.455v16.978
			c0,0.174-0.061,0.316-0.182,0.429c-0.122,0.113-0.269,0.169-0.442,0.169h-1.248c-0.173,0-0.316-0.056-0.429-0.169
			c-0.113-0.113-0.169-0.255-0.169-0.429V2.522h-9.048v15.34c0,0.174-0.061,0.316-0.182,0.429s-0.269,0.169-0.442,0.169h-1.248
			C183.11,18.46,182.971,18.404,182.867,18.291z"/>
		<path fill="#FFFFFF" d="M199.351,18.304c-0.104-0.104-0.156-0.225-0.156-0.364l0.052-0.286l6.448-16.822
			c0.139-0.381,0.416-0.572,0.832-0.572h1.664c0.416,0,0.693,0.191,0.832,0.572l6.448,16.822l0.052,0.286
			c0,0.139-0.057,0.26-0.169,0.364c-0.113,0.104-0.239,0.156-0.377,0.156h-1.222c-0.173,0-0.316-0.047-0.429-0.143
			c-0.113-0.095-0.187-0.195-0.221-0.299l-1.456-3.744h-8.606l-1.43,3.744c-0.139,0.295-0.355,0.442-0.65,0.442h-1.248
			C199.576,18.46,199.455,18.408,199.351,18.304z M203.797,12.116h7.124l-3.562-9.334L203.797,12.116z"/>
		<path fill="#FFFFFF" d="M219.306,16.835c-1.205-1.256-1.851-2.977-1.937-5.161c-0.018-0.468-0.026-1.23-0.026-2.288
			c0-1.074,0.008-1.854,0.026-2.34c0.086-2.184,0.732-3.904,1.937-5.161C220.51,0.628,222.265,0,224.571,0
			c1.542,0,2.851,0.273,3.926,0.819s1.885,1.261,2.431,2.145c0.546,0.884,0.845,1.829,0.897,2.834c0,0.156-0.057,0.282-0.169,0.377
			c-0.113,0.096-0.247,0.143-0.403,0.143h-1.3c-0.173,0-0.312-0.043-0.416-0.13c-0.104-0.086-0.182-0.234-0.234-0.442
			c-0.295-1.334-0.828-2.271-1.599-2.808c-0.771-0.537-1.816-0.806-3.133-0.806c-3.016,0-4.585,1.682-4.706,5.044
			c-0.018,0.468-0.026,1.188-0.026,2.158s0.008,1.708,0.026,2.21c0.121,3.346,1.69,5.018,4.706,5.018c1.3,0,2.34-0.269,3.12-0.806
			c0.78-0.537,1.317-1.464,1.612-2.782c0.052-0.208,0.13-0.355,0.234-0.442c0.104-0.086,0.243-0.13,0.416-0.13h1.3
			c0.156,0,0.29,0.048,0.403,0.143c0.112,0.096,0.169,0.221,0.169,0.377c-0.052,1.005-0.351,1.95-0.897,2.834
			c-0.546,0.884-1.356,1.599-2.431,2.145s-2.383,0.819-3.926,0.819C222.265,18.72,220.51,18.092,219.306,16.835z"/>
		<path fill="#FFFFFF" d="M235.256,18.291c-0.104-0.113-0.156-0.255-0.156-0.429V0.884c0-0.19,0.052-0.342,0.156-0.455
			s0.243-0.169,0.416-0.169h1.248c0.19,0,0.342,0.057,0.455,0.169c0.112,0.113,0.169,0.264,0.169,0.455v7.228h9.048V0.884
			c0-0.19,0.056-0.342,0.169-0.455c0.112-0.113,0.255-0.169,0.429-0.169h1.248c0.19,0,0.342,0.057,0.455,0.169
			c0.112,0.113,0.169,0.264,0.169,0.455v16.978c0,0.174-0.061,0.316-0.182,0.429c-0.122,0.113-0.269,0.169-0.442,0.169h-1.248
			c-0.173,0-0.316-0.056-0.429-0.169c-0.113-0.113-0.169-0.255-0.169-0.429v-7.488h-9.048v7.488c0,0.174-0.061,0.316-0.182,0.429
			s-0.269,0.169-0.442,0.169h-1.248C235.499,18.46,235.36,18.404,235.256,18.291z"/>
		<path fill="#FFFFFF" d="M254.626,16.939c-1.23-1.187-1.88-2.977-1.95-5.369c-0.017-0.52-0.026-1.256-0.026-2.21
			c0-0.953,0.009-1.681,0.026-2.184c0.069-2.357,0.741-4.143,2.015-5.356c1.273-1.213,2.994-1.82,5.161-1.82
			c2.166,0,3.882,0.607,5.147,1.82c1.266,1.213,1.933,2.999,2.002,5.356c0.035,1.006,0.053,1.734,0.053,2.184
			c0,0.434-0.018,1.17-0.053,2.21c-0.069,2.392-0.715,4.182-1.937,5.369c-1.223,1.188-2.96,1.781-5.213,1.781
			C257.599,18.72,255.856,18.126,254.626,16.939z M263.181,15.301c0.832-0.84,1.282-2.127,1.352-3.861
			c0.034-1.04,0.052-1.733,0.052-2.08c0-0.381-0.018-1.074-0.052-2.08c-0.069-1.733-0.52-3.024-1.352-3.874
			c-0.832-0.849-1.942-1.274-3.328-1.274c-1.388,0-2.501,0.425-3.342,1.274c-0.841,0.85-1.286,2.141-1.339,3.874
			c-0.018,0.503-0.025,1.196-0.025,2.08c0,0.867,0.008,1.56,0.025,2.08c0.053,1.733,0.494,3.021,1.326,3.861
			c0.832,0.841,1.95,1.261,3.354,1.261C261.238,16.562,262.349,16.142,263.181,15.301z"/>
		<path fill="#FFFFFF" d="M271.877,16.835c-1.205-1.256-1.851-2.977-1.938-5.161c-0.018-0.468-0.025-1.23-0.025-2.288
			c0-1.074,0.008-1.854,0.025-2.34c0.087-2.184,0.732-3.904,1.938-5.161C273.081,0.628,274.836,0,277.142,0
			c1.542,0,2.851,0.273,3.926,0.819c1.074,0.546,1.885,1.261,2.431,2.145c0.547,0.884,0.846,1.829,0.897,2.834
			c0,0.156-0.057,0.282-0.169,0.377c-0.113,0.096-0.247,0.143-0.403,0.143h-1.3c-0.174,0-0.312-0.043-0.416-0.13
			c-0.104-0.086-0.182-0.234-0.234-0.442c-0.295-1.334-0.827-2.271-1.599-2.808c-0.771-0.537-1.815-0.806-3.133-0.806
			c-3.016,0-4.585,1.682-4.706,5.044c-0.018,0.468-0.025,1.188-0.025,2.158s0.008,1.708,0.025,2.21
			c0.121,3.346,1.69,5.018,4.706,5.018c1.3,0,2.34-0.269,3.12-0.806c0.78-0.537,1.316-1.464,1.611-2.782
			c0.053-0.208,0.131-0.355,0.234-0.442c0.104-0.086,0.242-0.13,0.416-0.13h1.3c0.156,0,0.29,0.048,0.403,0.143
			c0.112,0.096,0.169,0.221,0.169,0.377c-0.052,1.005-0.351,1.95-0.897,2.834c-0.546,0.884-1.356,1.599-2.431,2.145
			c-1.075,0.546-2.384,0.819-3.926,0.819C274.836,18.72,273.081,18.092,271.877,16.835z"/>
		<path fill="#FFFFFF" d="M291.818,18.291c-0.112-0.113-0.169-0.255-0.169-0.429V2.496h-5.018c-0.174,0-0.316-0.056-0.429-0.169
			c-0.113-0.113-0.169-0.256-0.169-0.429V0.884c0-0.19,0.056-0.342,0.169-0.455c0.112-0.113,0.255-0.169,0.429-0.169h12.479
			c0.191,0,0.339,0.057,0.442,0.169c0.104,0.113,0.156,0.264,0.156,0.455v1.014c0,0.173-0.057,0.316-0.169,0.429
			c-0.113,0.113-0.256,0.169-0.43,0.169h-4.991v15.366c0,0.174-0.062,0.316-0.183,0.429s-0.269,0.169-0.441,0.169h-1.248
			C292.074,18.46,291.932,18.404,291.818,18.291z"/>
		<path fill="#FFFFFF" d="M302.569,18.291c-0.104-0.113-0.156-0.264-0.156-0.455V0.884c0-0.19,0.052-0.342,0.156-0.455
			c0.104-0.113,0.251-0.169,0.441-0.169h1.248c0.173,0,0.316,0.057,0.43,0.169c0.112,0.113,0.169,0.264,0.169,0.455v13.598
			l9.802-13.858c0.139-0.243,0.347-0.364,0.624-0.364h1.222c0.173,0,0.316,0.057,0.429,0.169c0.113,0.113,0.169,0.264,0.169,0.455
			v16.978c0,0.174-0.056,0.316-0.169,0.429c-0.112,0.113-0.256,0.169-0.429,0.169h-1.248c-0.173,0-0.32-0.056-0.441-0.169
			c-0.122-0.113-0.183-0.255-0.183-0.429V4.394l-9.775,13.702c-0.14,0.243-0.348,0.364-0.624,0.364h-1.248
			C302.812,18.46,302.673,18.404,302.569,18.291z"/>
	</g>
	<g>
		<g>
			<path fill="#01E3B6" d="M16.023,39.126c-0.91-1.029-1.4-2.412-1.47-4.147c-0.014-0.378-0.021-0.994-0.021-1.848
				c0-0.868,0.007-1.498,0.021-1.89c0.07-1.735,0.56-3.118,1.47-4.147c0.91-1.029,2.275-1.543,4.095-1.543
				c1.246,0,2.282,0.228,3.108,0.683c0.826,0.455,1.438,1.029,1.837,1.722c0.399,0.693,0.62,1.404,0.662,2.131v0.042
				c0,0.112-0.042,0.203-0.126,0.273c-0.084,0.07-0.189,0.105-0.315,0.105h-0.42c-0.252,0-0.406-0.147-0.462-0.441
				c-0.266-1.19-0.749-2.03-1.449-2.52c-0.7-0.49-1.646-0.735-2.835-0.735c-1.316,0-2.338,0.371-3.066,1.113
				c-0.728,0.742-1.12,1.883-1.176,3.423c-0.014,0.378-0.021,0.959-0.021,1.743c0,0.784,0.007,1.379,0.021,1.785
				c0.056,1.54,0.448,2.681,1.176,3.423c0.728,0.742,1.75,1.113,3.066,1.113c1.189,0,2.135-0.245,2.835-0.735
				c0.7-0.49,1.183-1.33,1.449-2.52c0.056-0.294,0.21-0.441,0.462-0.441h0.42c0.126,0,0.234,0.039,0.325,0.116
				c0.091,0.077,0.129,0.178,0.116,0.304c-0.042,0.729-0.263,1.438-0.662,2.132c-0.399,0.693-1.012,1.267-1.837,1.722
				c-0.826,0.455-1.862,0.683-3.108,0.683C18.298,40.67,16.933,40.155,16.023,39.126z"/>
			<path fill="#01E3B6" d="M37.317,29.666c0.084,0.084,0.126,0.175,0.126,0.273v10.059c0,0.14-0.042,0.252-0.126,0.336
				s-0.196,0.126-0.336,0.126h-0.357c-0.14,0-0.252-0.042-0.336-0.126s-0.126-0.196-0.126-0.336v-8.316l-6.468,8.463
				c-0.154,0.21-0.336,0.315-0.546,0.315h-0.399c-0.112,0-0.21-0.042-0.294-0.126s-0.126-0.182-0.126-0.294V30.002
				c0-0.14,0.042-0.252,0.126-0.336s0.196-0.126,0.336-0.126h0.357c0.14,0,0.252,0.042,0.336,0.126s0.126,0.196,0.126,0.336v8.316
				l6.468-8.463c0.154-0.21,0.336-0.315,0.546-0.315h0.399C37.135,29.54,37.233,29.582,37.317,29.666z"/>
			<path fill="#01E3B6" d="M41.391,39.399c-0.798-0.847-1.218-2.033-1.26-3.56L40.109,35l0.021-0.84
				c0.042-1.526,0.462-2.712,1.26-3.56s1.925-1.271,3.381-1.271c0.924,0,1.711,0.165,2.363,0.493c0.651,0.329,1.137,0.75,1.459,1.26
				c0.322,0.511,0.497,1.04,0.525,1.585c0.014,0.126-0.028,0.235-0.126,0.326c-0.098,0.091-0.21,0.136-0.336,0.136h-0.294
				c-0.14,0-0.242-0.031-0.305-0.094s-0.129-0.179-0.2-0.347c-0.28-0.77-0.672-1.319-1.176-1.648
				c-0.504-0.329-1.141-0.494-1.911-0.494c-1.008,0-1.81,0.305-2.404,0.914c-0.595,0.609-0.914,1.543-0.956,2.804L41.391,35
				l0.021,0.735c0.042,1.26,0.36,2.195,0.956,2.804c0.595,0.609,1.396,0.914,2.404,0.914c0.77,0,1.407-0.165,1.911-0.494
				c0.504-0.329,0.896-0.878,1.176-1.648c0.07-0.168,0.137-0.284,0.2-0.347s0.165-0.094,0.305-0.094h0.294
				c0.126,0,0.238,0.045,0.336,0.136c0.098,0.091,0.14,0.2,0.126,0.326c-0.028,0.546-0.203,1.075-0.525,1.585
				c-0.322,0.511-0.809,0.931-1.459,1.26c-0.651,0.329-1.438,0.494-2.363,0.494C43.315,40.67,42.188,40.247,41.391,39.399z"/>
			<path fill="#01E3B6" d="M54.684,40.334c-0.084-0.084-0.126-0.196-0.126-0.336v-9.24h-3.843c-0.14,0-0.252-0.042-0.336-0.126
				s-0.126-0.196-0.126-0.336v-0.294c0-0.14,0.042-0.252,0.126-0.336s0.196-0.126,0.336-0.126h8.967c0.14,0,0.252,0.042,0.336,0.126
				s0.126,0.196,0.126,0.336v0.294c0,0.14-0.042,0.252-0.126,0.336s-0.196,0.126-0.336,0.126h-3.843v9.24
				c0,0.14-0.042,0.252-0.126,0.336s-0.196,0.126-0.336,0.126H55.02C54.879,40.46,54.768,40.418,54.684,40.334z"/>
			<path fill="#01E3B6" d="M62.748,39.357c-0.812-0.875-1.274-2.047-1.386-3.518L61.34,35l0.021-0.84
				c0.112-1.456,0.57-2.625,1.375-3.507c0.805-0.882,1.88-1.323,3.224-1.323c1.456,0,2.594,0.483,3.413,1.449
				c0.819,0.966,1.229,2.289,1.229,3.969v0.315c0,0.14-0.045,0.252-0.137,0.336c-0.091,0.084-0.207,0.126-0.346,0.126h-7.476v0.21
				c0.028,0.658,0.178,1.271,0.452,1.837c0.273,0.567,0.654,1.022,1.145,1.365c0.49,0.343,1.063,0.515,1.722,0.515
				c0.77,0,1.396-0.15,1.879-0.452c0.483-0.301,0.83-0.605,1.04-0.914c0.126-0.168,0.221-0.273,0.284-0.315s0.178-0.063,0.347-0.063
				h0.336c0.126,0,0.231,0.035,0.315,0.105c0.084,0.07,0.126,0.161,0.126,0.273c0,0.294-0.186,0.648-0.557,1.061
				c-0.371,0.413-0.886,0.77-1.543,1.071c-0.658,0.301-1.4,0.452-2.226,0.452C64.63,40.67,63.559,40.232,62.748,39.357z
				 M69.32,34.349v-0.084c0-1.078-0.304-1.967-0.913-2.667c-0.609-0.7-1.425-1.05-2.447-1.05s-1.831,0.35-2.425,1.05
				c-0.595,0.7-0.893,1.589-0.893,2.667v0.084H69.32z"/>
			<path fill="#01E3B6" d="M83.579,29.666c0.084,0.084,0.126,0.175,0.126,0.273v10.059c0,0.14-0.042,0.252-0.126,0.336
				s-0.196,0.126-0.336,0.126h-0.357c-0.14,0-0.252-0.042-0.336-0.126s-0.126-0.196-0.126-0.336v-7.854l-3.066,5.943
				c-0.112,0.196-0.213,0.343-0.305,0.441c-0.091,0.098-0.228,0.147-0.409,0.147h-0.42c-0.182,0-0.319-0.049-0.41-0.147
				c-0.091-0.098-0.193-0.245-0.305-0.441l-3.066-5.775v7.686c0,0.14-0.042,0.252-0.126,0.336s-0.196,0.126-0.336,0.126h-0.357
				c-0.14,0-0.252-0.042-0.336-0.126s-0.126-0.196-0.126-0.336V29.939c0-0.098,0.042-0.189,0.126-0.273s0.182-0.126,0.294-0.126
				h0.483c0.21,0,0.371,0.105,0.483,0.315l3.885,7.35l3.885-7.35c0.112-0.21,0.273-0.315,0.483-0.315h0.483
				C83.397,29.54,83.495,29.582,83.579,29.666z"/>
			<path fill="#01E3B6" d="M87.023,40.334c-0.084-0.084-0.126-0.196-0.126-0.336v-9.996c0-0.14,0.042-0.252,0.126-0.336
				s0.196-0.126,0.336-0.126h0.357c0.14,0,0.252,0.042,0.336,0.126s0.126,0.196,0.126,0.336v3.192h2.31
				c2.646,0,3.969,1.239,3.969,3.717c0,1.232-0.347,2.131-1.04,2.698c-0.693,0.567-1.775,0.851-3.245,0.851h-2.814
				C87.219,40.46,87.107,40.418,87.023,40.334z M90.362,39.242c0.994,0,1.711-0.175,2.152-0.525c0.441-0.35,0.662-0.952,0.662-1.806
				s-0.221-1.484-0.662-1.89c-0.441-0.406-1.159-0.609-2.152-0.609h-2.184v4.83H90.362z M96.179,40.334
				c-0.084-0.084-0.126-0.196-0.126-0.336v-9.996c0-0.14,0.042-0.252,0.126-0.336s0.196-0.126,0.336-0.126h0.357
				c0.14,0,0.252,0.042,0.336,0.126s0.126,0.196,0.126,0.336v9.996c0,0.14-0.042,0.252-0.126,0.336s-0.196,0.126-0.336,0.126h-0.357
				C96.375,40.46,96.263,40.418,96.179,40.334z"/>
			<path fill="#01E3B6" d="M114.764,35.378c0,0.238-0.007,0.406-0.021,0.504c-0.042,1.415-0.465,2.566-1.271,3.455
				c-0.805,0.889-1.936,1.333-3.392,1.333s-2.59-0.444-3.402-1.333c-0.812-0.889-1.239-2.04-1.281-3.455v-2.499
				c0-2.016,0.241-3.528,0.724-4.536c0.483-1.008,1.172-1.729,2.069-2.163c0.896-0.434,2.324-0.917,4.284-1.449
				c0.196-0.042,0.49-0.119,0.882-0.231l0.105-0.021c0.098,0,0.185,0.032,0.262,0.095c0.077,0.063,0.129,0.144,0.158,0.241
				l0.084,0.399c0.014,0.028,0.021,0.07,0.021,0.126c0,0.098-0.028,0.179-0.084,0.242c-0.056,0.063-0.133,0.108-0.231,0.137
				l-1.365,0.357c-1.54,0.406-2.66,0.759-3.36,1.061c-0.7,0.301-1.25,0.773-1.648,1.417s-0.613,1.596-0.641,2.856
				c0.35-0.588,0.854-1.061,1.512-1.417c0.658-0.357,1.365-0.536,2.121-0.536c1.358,0,2.429,0.448,3.213,1.344
				c0.784,0.896,1.197,2.044,1.239,3.444C114.756,34.888,114.764,35.098,114.764,35.378z M113.483,35.378
				c0-0.21-0.007-0.385-0.021-0.525c-0.042-1.162-0.357-2.065-0.945-2.709s-1.33-0.966-2.226-0.966c-1.008,0-1.848,0.322-2.52,0.966
				c-0.672,0.644-1.029,1.547-1.071,2.709l-0.021,0.525l0.021,0.399c0.042,1.176,0.368,2.083,0.977,2.72s1.41,0.956,2.404,0.956
				s1.795-0.318,2.405-0.956c0.609-0.637,0.935-1.543,0.977-2.72C113.476,35.693,113.483,35.56,113.483,35.378z"/>
			<path fill="#01E3B6" d="M118.271,39.357c-0.812-0.875-1.274-2.047-1.386-3.518L116.863,35l0.021-0.84
				c0.112-1.456,0.57-2.625,1.375-3.507c0.805-0.882,1.88-1.323,3.224-1.323c1.456,0,2.594,0.483,3.413,1.449
				c0.819,0.966,1.229,2.289,1.229,3.969v0.315c0,0.14-0.045,0.252-0.137,0.336c-0.091,0.084-0.207,0.126-0.346,0.126h-7.476v0.21
				c0.028,0.658,0.178,1.271,0.452,1.837c0.273,0.567,0.654,1.022,1.145,1.365c0.49,0.343,1.063,0.515,1.722,0.515
				c0.77,0,1.396-0.15,1.879-0.452c0.483-0.301,0.83-0.605,1.04-0.914c0.126-0.168,0.221-0.273,0.284-0.315s0.178-0.063,0.347-0.063
				h0.336c0.126,0,0.231,0.035,0.315,0.105c0.084,0.07,0.126,0.161,0.126,0.273c0,0.294-0.186,0.648-0.557,1.061
				c-0.371,0.413-0.886,0.77-1.543,1.071c-0.658,0.301-1.4,0.452-2.226,0.452C120.153,40.67,119.082,40.232,118.271,39.357z
				 M124.843,34.349v-0.084c0-1.078-0.304-1.967-0.913-2.667c-0.609-0.7-1.425-1.05-2.447-1.05s-1.831,0.35-2.425,1.05
				c-0.595,0.7-0.893,1.589-0.893,2.667v0.084H124.843z"/>
			<path fill="#01E3B6" d="M129.778,40.197c-0.63-0.315-1.092-0.7-1.386-1.155c-0.294-0.455-0.441-0.899-0.441-1.333
				c0-0.126,0.042-0.228,0.126-0.305c0.084-0.077,0.189-0.115,0.315-0.115h0.357c0.266,0,0.434,0.147,0.504,0.441
				c0.168,0.63,0.515,1.075,1.04,1.333c0.525,0.259,1.214,0.389,2.068,0.389c0.812,0,1.487-0.168,2.026-0.504
				c0.539-0.336,0.809-0.84,0.809-1.512c0-1.344-0.763-2.016-2.289-2.016h-1.134c-0.14,0-0.252-0.042-0.336-0.126
				s-0.126-0.196-0.126-0.336v-0.294c0-0.14,0.042-0.252,0.126-0.336s0.196-0.126,0.336-0.126h0.987
				c1.344,0,2.016-0.539,2.016-1.617c0-0.574-0.207-1.057-0.62-1.449c-0.413-0.392-1.082-0.588-2.005-0.588
				c-0.882,0-1.519,0.154-1.911,0.462c-0.392,0.308-0.672,0.798-0.84,1.47c-0.07,0.294-0.238,0.441-0.504,0.441h-0.357
				c-0.126,0-0.231-0.038-0.315-0.115c-0.084-0.077-0.126-0.179-0.126-0.305c0-0.924,0.357-1.683,1.071-2.278
				s1.708-0.893,2.982-0.893c0.91,0,1.659,0.157,2.247,0.472c0.588,0.315,1.011,0.708,1.271,1.176
				c0.259,0.469,0.388,0.935,0.388,1.396c0,0.602-0.091,1.071-0.273,1.407c-0.182,0.336-0.511,0.63-0.987,0.882
				c0.616,0.238,1.05,0.591,1.302,1.061c0.252,0.469,0.378,1.061,0.378,1.774c0,1.05-0.403,1.841-1.208,2.373
				c-0.805,0.532-1.845,0.798-3.119,0.798C131.199,40.67,130.408,40.513,129.778,40.197z"/>
			<path fill="#01E3B6" d="M139.574,39.336c-0.805-0.889-1.229-2.04-1.271-3.455L138.283,35l0.021-0.882
				c0.042-1.414,0.465-2.565,1.271-3.455s1.936-1.333,3.392-1.333s2.586,0.444,3.392,1.333c0.805,0.889,1.229,2.041,1.271,3.455
				c0.014,0.14,0.021,0.434,0.021,0.882c0,0.448-0.007,0.742-0.021,0.882c-0.042,1.415-0.466,2.566-1.271,3.455
				c-0.805,0.889-1.936,1.333-3.392,1.333S140.379,40.226,139.574,39.336z M145.371,38.497c0.609-0.637,0.935-1.543,0.977-2.72
				c0.014-0.14,0.021-0.399,0.021-0.777s-0.007-0.637-0.021-0.777c-0.042-1.176-0.368-2.083-0.977-2.72
				c-0.609-0.637-1.411-0.956-2.405-0.956s-1.795,0.319-2.404,0.956c-0.609,0.637-0.935,1.543-0.977,2.72L139.564,35l0.021,0.777
				c0.042,1.176,0.368,2.083,0.977,2.72s1.41,0.956,2.404,0.956S144.761,39.134,145.371,38.497z"/>
			<path fill="#01E3B6" d="M150.442,40.334c-0.084-0.084-0.126-0.196-0.126-0.336v-9.996c0-0.14,0.042-0.252,0.126-0.336
				s0.196-0.126,0.336-0.126h7.77c0.14,0,0.252,0.042,0.336,0.126s0.126,0.196,0.126,0.336v9.996c0,0.14-0.042,0.252-0.126,0.336
				s-0.196,0.126-0.336,0.126h-0.357c-0.14,0-0.252-0.042-0.336-0.126c-0.084-0.084-0.126-0.196-0.126-0.336v-9.24h-6.132v9.24
				c0,0.14-0.042,0.252-0.126,0.336s-0.196,0.126-0.336,0.126h-0.357C150.638,40.46,150.526,40.418,150.442,40.334z"/>
			<path fill="#01E3B6" d="M163.272,40.25c-0.574-0.28-1.033-0.658-1.375-1.134c-0.343-0.476-0.515-1-0.515-1.575
				c0-0.924,0.375-1.68,1.124-2.268s1.761-0.966,3.035-1.134l3.318-0.462v-0.735c0-0.77-0.234-1.361-0.704-1.774
				c-0.469-0.413-1.187-0.62-2.152-0.62c-0.714,0-1.299,0.14-1.753,0.42c-0.455,0.28-0.746,0.616-0.872,1.008
				c-0.056,0.168-0.123,0.283-0.199,0.346c-0.077,0.063-0.179,0.095-0.305,0.095h-0.294c-0.126,0-0.235-0.045-0.326-0.137
				c-0.091-0.091-0.136-0.199-0.136-0.325c0-0.308,0.14-0.668,0.42-1.082c0.28-0.413,0.714-0.773,1.302-1.082
				c0.588-0.308,1.309-0.462,2.163-0.462c1.498,0,2.562,0.357,3.192,1.071c0.63,0.714,0.945,1.583,0.945,2.604v6.993
				c0,0.14-0.042,0.252-0.126,0.336s-0.196,0.126-0.336,0.126h-0.357c-0.14,0-0.252-0.042-0.336-0.126s-0.126-0.196-0.126-0.336
				v-0.987c-0.308,0.462-0.759,0.854-1.354,1.176s-1.383,0.483-2.362,0.483C164.47,40.67,163.846,40.53,163.272,40.25z
				 M167.872,38.444c0.658-0.672,0.987-1.638,0.987-2.898v-0.714l-2.709,0.378c-1.148,0.154-2.016,0.42-2.604,0.798
				s-0.882,0.854-0.882,1.428c0,0.644,0.27,1.141,0.809,1.491c0.539,0.35,1.166,0.525,1.879,0.525
				C166.373,39.452,167.213,39.116,167.872,38.444z"/>
			<path fill="#01E3B6" d="M174.003,39.399c-0.798-0.847-1.218-2.033-1.26-3.56L172.722,35l0.021-0.84
				c0.042-1.526,0.462-2.712,1.26-3.56s1.925-1.271,3.381-1.271c0.924,0,1.711,0.165,2.363,0.493c0.651,0.329,1.137,0.75,1.459,1.26
				c0.322,0.511,0.497,1.04,0.525,1.585c0.014,0.126-0.028,0.235-0.126,0.326c-0.098,0.091-0.21,0.136-0.336,0.136h-0.294
				c-0.14,0-0.242-0.031-0.305-0.094s-0.129-0.179-0.2-0.347c-0.28-0.77-0.672-1.319-1.176-1.648
				c-0.504-0.329-1.141-0.494-1.911-0.494c-1.008,0-1.81,0.305-2.404,0.914c-0.595,0.609-0.914,1.543-0.956,2.804L174.003,35
				l0.021,0.735c0.042,1.26,0.36,2.195,0.956,2.804c0.595,0.609,1.396,0.914,2.404,0.914c0.77,0,1.407-0.165,1.911-0.494
				c0.504-0.329,0.896-0.878,1.176-1.648c0.07-0.168,0.137-0.284,0.2-0.347s0.165-0.094,0.305-0.094h0.294
				c0.126,0,0.238,0.045,0.336,0.136c0.098,0.091,0.14,0.2,0.126,0.326c-0.028,0.546-0.203,1.075-0.525,1.585
				c-0.322,0.511-0.809,0.931-1.459,1.26c-0.651,0.329-1.438,0.494-2.363,0.494C175.928,40.67,174.801,40.247,174.003,39.399z"/>
			<path fill="#01E3B6" d="M184.419,40.334c-0.084-0.084-0.126-0.196-0.126-0.336v-9.996c0-0.14,0.042-0.252,0.126-0.336
				s0.196-0.126,0.336-0.126h0.357c0.14,0,0.252,0.042,0.336,0.126s0.126,0.196,0.126,0.336v4.263h6.552v-4.263
				c0-0.14,0.042-0.252,0.126-0.336s0.196-0.126,0.336-0.126h0.357c0.14,0,0.252,0.042,0.336,0.126s0.126,0.196,0.126,0.336v9.996
				c0,0.14-0.042,0.252-0.126,0.336s-0.196,0.126-0.336,0.126h-0.357c-0.14,0-0.252-0.042-0.336-0.126s-0.126-0.196-0.126-0.336
				v-4.515h-6.552v4.515c0,0.14-0.042,0.252-0.126,0.336s-0.196,0.126-0.336,0.126h-0.357
				C184.615,40.46,184.503,40.418,184.419,40.334z"/>
			<path fill="#01E3B6" d="M197.366,39.336c-0.805-0.889-1.229-2.04-1.271-3.455L196.074,35l0.021-0.882
				c0.042-1.414,0.465-2.565,1.271-3.455s1.936-1.333,3.392-1.333s2.586,0.444,3.392,1.333c0.805,0.889,1.229,2.041,1.271,3.455
				c0.014,0.14,0.021,0.434,0.021,0.882c0,0.448-0.007,0.742-0.021,0.882c-0.042,1.415-0.466,2.566-1.271,3.455
				c-0.805,0.889-1.936,1.333-3.392,1.333S198.171,40.226,197.366,39.336z M203.162,38.497c0.609-0.637,0.935-1.543,0.977-2.72
				c0.014-0.14,0.021-0.399,0.021-0.777s-0.007-0.637-0.021-0.777c-0.042-1.176-0.368-2.083-0.977-2.72
				c-0.609-0.637-1.411-0.956-2.405-0.956s-1.795,0.319-2.404,0.956c-0.609,0.637-0.935,1.543-0.977,2.72L197.355,35l0.021,0.777
				c0.042,1.176,0.368,2.083,0.977,2.72s1.41,0.956,2.404,0.956S202.553,39.134,203.162,38.497z"/>
			<path fill="#01E3B6" d="M208.863,39.399c-0.798-0.847-1.218-2.033-1.26-3.56L207.582,35l0.021-0.84
				c0.042-1.526,0.462-2.712,1.26-3.56s1.925-1.271,3.381-1.271c0.924,0,1.711,0.165,2.363,0.493c0.651,0.329,1.137,0.75,1.459,1.26
				c0.322,0.511,0.497,1.04,0.525,1.585c0.014,0.126-0.028,0.235-0.126,0.326c-0.098,0.091-0.21,0.136-0.336,0.136h-0.294
				c-0.14,0-0.242-0.031-0.305-0.094s-0.129-0.179-0.2-0.347c-0.28-0.77-0.672-1.319-1.176-1.648
				c-0.504-0.329-1.141-0.494-1.911-0.494c-1.008,0-1.81,0.305-2.404,0.914c-0.595,0.609-0.914,1.543-0.956,2.804L208.863,35
				l0.021,0.735c0.042,1.26,0.36,2.195,0.956,2.804c0.595,0.609,1.396,0.914,2.404,0.914c0.77,0,1.407-0.165,1.911-0.494
				c0.504-0.329,0.896-0.878,1.176-1.648c0.07-0.168,0.137-0.284,0.2-0.347s0.165-0.094,0.305-0.094h0.294
				c0.126,0,0.238,0.045,0.336,0.136c0.098,0.091,0.14,0.2,0.126,0.326c-0.028,0.546-0.203,1.075-0.525,1.585
				c-0.322,0.511-0.809,0.931-1.459,1.26c-0.651,0.329-1.438,0.494-2.363,0.494C210.788,40.67,209.661,40.247,208.863,39.399z"/>
			<path fill="#01E3B6" d="M222.156,40.334c-0.084-0.084-0.126-0.196-0.126-0.336v-9.24h-3.843c-0.14,0-0.252-0.042-0.336-0.126
				s-0.126-0.196-0.126-0.336v-0.294c0-0.14,0.042-0.252,0.126-0.336s0.196-0.126,0.336-0.126h8.967c0.14,0,0.252,0.042,0.336,0.126
				s0.126,0.196,0.126,0.336v0.294c0,0.14-0.042,0.252-0.126,0.336s-0.196,0.126-0.336,0.126h-3.843v9.24
				c0,0.14-0.042,0.252-0.126,0.336s-0.196,0.126-0.336,0.126h-0.357C222.352,40.46,222.24,40.418,222.156,40.334z"/>
			<path fill="#01E3B6" d="M238.368,29.666c0.084,0.084,0.126,0.175,0.126,0.273v10.059c0,0.14-0.042,0.252-0.126,0.336
				s-0.196,0.126-0.336,0.126h-0.357c-0.14,0-0.252-0.042-0.336-0.126s-0.126-0.196-0.126-0.336v-8.316l-6.468,8.463
				c-0.154,0.21-0.336,0.315-0.546,0.315H229.8c-0.112,0-0.21-0.042-0.294-0.126s-0.126-0.182-0.126-0.294V30.002
				c0-0.14,0.042-0.252,0.126-0.336s0.196-0.126,0.336-0.126h0.357c0.14,0,0.252,0.042,0.336,0.126s0.126,0.196,0.126,0.336v8.316
				l6.468-8.463c0.154-0.21,0.336-0.315,0.546-0.315h0.399C238.186,29.54,238.284,29.582,238.368,29.666z"/>
			<path fill="#01E3B6" d="M255.882,29.666c0.084,0.084,0.126,0.175,0.126,0.273v10.059c0,0.14-0.042,0.252-0.126,0.336
				s-0.196,0.126-0.336,0.126h-0.357c-0.14,0-0.252-0.042-0.336-0.126s-0.126-0.196-0.126-0.336v-8.316l-6.468,8.463
				c-0.154,0.21-0.336,0.315-0.546,0.315h-0.399c-0.112,0-0.21-0.042-0.294-0.126s-0.126-0.182-0.126-0.294V30.002
				c0-0.14,0.042-0.252,0.126-0.336s0.196-0.126,0.336-0.126h0.357c0.14,0,0.252,0.042,0.336,0.126s0.126,0.196,0.126,0.336v8.316
				l6.468-8.463c0.154-0.21,0.336-0.315,0.546-0.315h0.399C255.699,29.54,255.798,29.582,255.882,29.666z"/>
			<path fill="#01E3B6" d="M265.163,39.399c-0.798-0.847-1.218-2.033-1.26-3.56L263.882,35l0.021-0.84
				c0.042-1.526,0.462-2.712,1.26-3.56s1.925-1.271,3.381-1.271c0.925,0,1.712,0.165,2.363,0.493c0.65,0.329,1.137,0.75,1.459,1.26
				c0.322,0.511,0.497,1.04,0.525,1.585c0.014,0.126-0.028,0.235-0.126,0.326c-0.099,0.091-0.21,0.136-0.336,0.136h-0.294
				c-0.141,0-0.242-0.031-0.305-0.094c-0.063-0.063-0.13-0.179-0.2-0.347c-0.279-0.77-0.672-1.319-1.176-1.648
				c-0.504-0.329-1.141-0.494-1.911-0.494c-1.008,0-1.81,0.305-2.404,0.914s-0.913,1.543-0.955,2.804L265.163,35l0.021,0.735
				c0.042,1.26,0.36,2.195,0.955,2.804s1.396,0.914,2.404,0.914c0.771,0,1.407-0.165,1.911-0.494
				c0.504-0.329,0.896-0.878,1.176-1.648c0.07-0.168,0.137-0.284,0.2-0.347c0.063-0.063,0.164-0.094,0.305-0.094h0.294
				c0.126,0,0.237,0.045,0.336,0.136c0.098,0.091,0.14,0.2,0.126,0.326c-0.028,0.546-0.203,1.075-0.525,1.585
				c-0.322,0.511-0.809,0.931-1.459,1.26c-0.651,0.329-1.438,0.494-2.363,0.494C267.088,40.67,265.961,40.247,265.163,39.399z"/>
			<path fill="#01E3B6" d="M275.579,40.334c-0.084-0.084-0.126-0.196-0.126-0.336v-9.996c0-0.14,0.042-0.252,0.126-0.336
				s0.196-0.126,0.336-0.126h4.137c1.135,0,2.02,0.259,2.657,0.777c0.637,0.518,0.955,1.211,0.955,2.079
				c0,0.63-0.115,1.113-0.347,1.449c-0.23,0.336-0.605,0.624-1.123,0.861c0.532,0.196,0.945,0.553,1.239,1.071
				c0.294,0.518,0.44,1.064,0.44,1.638c0,0.98-0.333,1.732-0.997,2.257c-0.665,0.525-1.572,0.788-2.72,0.788h-4.242
				C275.775,40.46,275.663,40.418,275.579,40.334z M279.842,34.349c0.771,0,1.387-0.175,1.849-0.525
				c0.462-0.35,0.692-0.826,0.692-1.428c0-0.588-0.22-1.008-0.661-1.26c-0.441-0.252-1.067-0.378-1.88-0.378h-3.107v3.591H279.842z
				 M279.989,39.242c0.798,0,1.432-0.158,1.9-0.473s0.703-0.767,0.703-1.354c0-0.63-0.213-1.095-0.64-1.396
				c-0.428-0.301-1.082-0.452-1.964-0.452h-3.255v3.675H279.989z"/>
			<path fill="#01E3B6" d="M293.996,29.666c0.084,0.084,0.126,0.196,0.126,0.336v9.996c0,0.14-0.042,0.252-0.126,0.336
				s-0.196,0.126-0.336,0.126h-0.357c-0.14,0-0.252-0.042-0.336-0.126s-0.126-0.196-0.126-0.336v-3.612H290.3l-2.646,3.759
				c-0.183,0.21-0.371,0.315-0.567,0.315h-0.378c-0.112,0-0.21-0.042-0.294-0.126s-0.126-0.182-0.126-0.294
				c0-0.154,0.056-0.294,0.168-0.42l2.437-3.486c-0.785-0.196-1.369-0.581-1.754-1.155c-0.386-0.574-0.577-1.274-0.577-2.1
				c0-1.162,0.328-2.009,0.986-2.541c0.658-0.532,1.688-0.798,3.087-0.798h3.024C293.8,29.54,293.912,29.582,293.996,29.666z
				 M292.841,30.758h-2.394c-0.924,0-1.589,0.158-1.995,0.473s-0.609,0.865-0.609,1.648c0,0.7,0.2,1.257,0.599,1.669
				c0.399,0.413,0.998,0.62,1.796,0.62h2.604V30.758z"/>
			<path fill="#01E3B6" d="M298.406,40.197c-0.63-0.315-1.092-0.7-1.386-1.155c-0.295-0.455-0.441-0.899-0.441-1.333
				c0-0.126,0.042-0.228,0.126-0.305c0.084-0.077,0.188-0.115,0.315-0.115h0.356c0.266,0,0.434,0.147,0.504,0.441
				c0.168,0.63,0.515,1.075,1.04,1.333c0.524,0.259,1.214,0.389,2.068,0.389c0.812,0,1.487-0.168,2.026-0.504
				c0.539-0.336,0.809-0.84,0.809-1.512c0-1.344-0.764-2.016-2.289-2.016h-1.134c-0.141,0-0.252-0.042-0.336-0.126
				s-0.126-0.196-0.126-0.336v-0.294c0-0.14,0.042-0.252,0.126-0.336s0.195-0.126,0.336-0.126h0.986
				c1.345,0,2.017-0.539,2.017-1.617c0-0.574-0.207-1.057-0.62-1.449c-0.413-0.392-1.081-0.588-2.005-0.588
				c-0.882,0-1.52,0.154-1.911,0.462c-0.393,0.308-0.672,0.798-0.84,1.47c-0.07,0.294-0.238,0.441-0.504,0.441h-0.357
				c-0.126,0-0.23-0.038-0.315-0.115c-0.084-0.077-0.126-0.179-0.126-0.305c0-0.924,0.357-1.683,1.071-2.278
				s1.708-0.893,2.982-0.893c0.909,0,1.659,0.157,2.247,0.472c0.588,0.315,1.011,0.708,1.271,1.176
				c0.259,0.469,0.388,0.935,0.388,1.396c0,0.602-0.091,1.071-0.272,1.407c-0.183,0.336-0.512,0.63-0.987,0.882
				c0.616,0.238,1.05,0.591,1.302,1.061c0.253,0.469,0.379,1.061,0.379,1.774c0,1.05-0.403,1.841-1.208,2.373
				s-1.845,0.798-3.118,0.798C299.827,40.67,299.036,40.513,298.406,40.197z"/>
			<path fill="#01E3B6" d="M316.424,29.666c0.084,0.084,0.126,0.175,0.126,0.273v10.059c0,0.14-0.042,0.252-0.126,0.336
				s-0.196,0.126-0.336,0.126h-0.357c-0.14,0-0.252-0.042-0.336-0.126s-0.126-0.196-0.126-0.336v-8.316l-6.468,8.463
				c-0.154,0.21-0.336,0.315-0.546,0.315h-0.399c-0.112,0-0.21-0.042-0.294-0.126s-0.126-0.182-0.126-0.294V30.002
				c0-0.14,0.042-0.252,0.126-0.336s0.196-0.126,0.336-0.126h0.357c0.14,0,0.252,0.042,0.336,0.126s0.126,0.196,0.126,0.336v8.316
				l6.468-8.463c0.154-0.21,0.336-0.315,0.546-0.315h0.399C316.241,29.54,316.34,29.582,316.424,29.666z"/>
		</g>
	</g>
</g>
</svg>
