<?xml version="1.0" encoding="utf-8"?>
<!-- Generator: Adobe Illustrator 17.0.0, SVG Export Plug-In . SVG Version: 6.00 Build 0)  -->
<!DOCTYPE svg PUBLIC "-//W3C//DTD SVG 1.1//EN" "http://www.w3.org/Graphics/SVG/1.1/DTD/svg11.dtd" [
	<!ENTITY ns_extend "http://ns.adobe.com/Extensibility/1.0/">
	<!ENTITY ns_ai "http://ns.adobe.com/AdobeIllustrator/10.0/">
	<!ENTITY ns_graphs "http://ns.adobe.com/Graphs/1.0/">
	<!ENTITY ns_vars "http://ns.adobe.com/Variables/1.0/">
	<!ENTITY ns_imrep "http://ns.adobe.com/ImageReplacement/1.0/">
	<!ENTITY ns_sfw "http://ns.adobe.com/SaveForWeb/1.0/">
	<!ENTITY ns_custom "http://ns.adobe.com/GenericCustomNamespace/1.0/">
	<!ENTITY ns_adobe_xpath "http://ns.adobe.com/XPath/1.0/">
]>
<svg version="1.1" id="Layer_1" xmlns:x="&ns_extend;" xmlns:i="&ns_ai;" xmlns:graph="&ns_graphs;"
	 xmlns="http://www.w3.org/2000/svg" xmlns:xlink="http://www.w3.org/1999/xlink" x="0px" y="0px" width="20px" height="20px"
	 viewBox="490 490 20 20" enable-background="new 490 490 20 20" xml:space="preserve">
<metadata>
	<sfw  xmlns="&ns_sfw;">
		<slices></slices>
		<sliceSourceBounds  width="20" height="20" x="489.5" y="490.5" bottomLeftOrigin="true"></sliceSourceBounds>
	</sfw>
</metadata>
<g>
	<g>
		<path fill="#050505" d="M500,510c5.515,0,10-4.485,10-10s-4.485-10-10-10s-10,4.485-10,10S494.485,510,500,510z M500,490.809
			c5.069,0,9.191,4.122,9.191,9.191s-4.122,9.191-9.191,9.191s-9.191-4.122-9.191-9.191S494.931,490.809,500,490.809z"/>
		<path fill="#050505" d="M498.578,503.321c0.078,0.078,0.184,0.118,0.286,0.118s0.208-0.041,0.286-0.118l3.035-3.035
			c0.078-0.078,0.118-0.18,0.118-0.286s-0.041-0.208-0.118-0.286l-3.035-3.035c-0.159-0.159-0.413-0.159-0.572,0
			s-0.159,0.413,0,0.572l2.749,2.749l-2.749,2.749C498.423,502.909,498.423,503.166,498.578,503.321z"/>
	</g>
</g>
</svg>
