<?xml version="1.0" encoding="utf-8"?>
<!-- Generator: Adobe Illustrator 17.0.0, SVG Export Plug-In . SVG Version: 6.00 Build 0)  -->
<!DOCTYPE svg PUBLIC "-//W3C//DTD SVG 1.1//EN" "http://www.w3.org/Graphics/SVG/1.1/DTD/svg11.dtd" [
	<!ENTITY ns_extend "http://ns.adobe.com/Extensibility/1.0/">
	<!ENTITY ns_ai "http://ns.adobe.com/AdobeIllustrator/10.0/">
	<!ENTITY ns_graphs "http://ns.adobe.com/Graphs/1.0/">
	<!ENTITY ns_vars "http://ns.adobe.com/Variables/1.0/">
	<!ENTITY ns_imrep "http://ns.adobe.com/ImageReplacement/1.0/">
	<!ENTITY ns_sfw "http://ns.adobe.com/SaveForWeb/1.0/">
	<!ENTITY ns_custom "http://ns.adobe.com/GenericCustomNamespace/1.0/">
	<!ENTITY ns_adobe_xpath "http://ns.adobe.com/XPath/1.0/">
]>
<svg fill="#006473" version="1.1" id="Слой_1" xmlns:x="&ns_extend;" xmlns:i="&ns_ai;" xmlns:graph="&ns_graphs;"
	 xmlns="http://www.w3.org/2000/svg" xmlns:xlink="http://www.w3.org/1999/xlink" x="0px" y="0px" width="20px" height="11.411px"
	 viewBox="0 0 20 11.411" enable-background="new 0 0 20 11.411" xml:space="preserve">
<metadata>
	<sfw  xmlns="&ns_sfw;">
		<slices></slices>
		<sliceSourceBounds  width="20" height="11.415" x="19.5" y="24.792" bottomLeftOrigin="true"></sliceSourceBounds>
	</sfw>
</metadata>
<g>
	<path fill="#141413" d="M19.894,10.305c-0.024-0.052-0.047-0.095-0.068-0.13c-0.347-0.625-1.01-1.392-1.989-2.301l-0.021-0.021
		l-0.01-0.01l-0.01-0.01h-0.011c-0.444-0.423-0.726-0.708-0.843-0.854c-0.216-0.278-0.264-0.559-0.146-0.844
		c0.083-0.215,0.396-0.67,0.937-1.364c0.285-0.368,0.51-0.663,0.677-0.885c1.201-1.597,1.722-2.617,1.562-3.061L19.91,0.72
		c-0.042-0.063-0.149-0.12-0.323-0.172s-0.396-0.061-0.667-0.026l-2.999,0.021c-0.049-0.017-0.118-0.016-0.208,0.005
		c-0.09,0.021-0.135,0.031-0.135,0.031l-0.052,0.026l-0.041,0.031c-0.035,0.021-0.073,0.057-0.115,0.109
		c-0.041,0.052-0.076,0.113-0.104,0.182c-0.327,0.84-0.698,1.621-1.114,2.343c-0.257,0.43-0.493,0.804-0.708,1.119
		c-0.215,0.316-0.396,0.548-0.541,0.698c-0.146,0.149-0.278,0.269-0.396,0.359s-0.208,0.129-0.271,0.115
		c-0.063-0.014-0.121-0.028-0.177-0.042c-0.097-0.063-0.175-0.148-0.234-0.255c-0.059-0.108-0.099-0.243-0.12-0.406
		s-0.033-0.304-0.036-0.422s-0.002-0.285,0.005-0.5c0.007-0.215,0.01-0.361,0.01-0.437c0-0.264,0.005-0.55,0.015-0.859
		c0.011-0.309,0.019-0.554,0.026-0.734c0.007-0.181,0.01-0.371,0.01-0.573s-0.012-0.359-0.036-0.474
		c-0.024-0.114-0.061-0.226-0.109-0.333c-0.049-0.108-0.12-0.191-0.213-0.25c-0.094-0.059-0.21-0.106-0.349-0.141
		C10.66,0.052,10.191,0.007,9.622,0C8.331-0.014,7.501,0.07,7.133,0.25C6.987,0.326,6.855,0.43,6.737,0.562
		C6.612,0.717,6.595,0.8,6.685,0.814C7.102,0.876,7.397,1.025,7.57,1.261l0.063,0.125c0.049,0.09,0.097,0.25,0.146,0.479
		s0.08,0.482,0.094,0.76c0.035,0.507,0.035,0.941,0,1.302s-0.068,0.642-0.1,0.844C7.742,4.972,7.695,5.135,7.633,5.26
		C7.57,5.385,7.529,5.461,7.508,5.489C7.487,5.517,7.47,5.534,7.456,5.541c-0.09,0.035-0.184,0.052-0.281,0.052
		S6.96,5.544,6.821,5.447s-0.283-0.23-0.432-0.401C6.24,4.876,6.071,4.638,5.884,4.333C5.696,4.028,5.502,3.667,5.3,3.25
		L5.134,2.948C5.03,2.754,4.887,2.471,4.707,2.1c-0.181-0.371-0.34-0.731-0.479-1.078c-0.055-0.146-0.139-0.257-0.25-0.333
		L3.926,0.657C3.891,0.629,3.836,0.6,3.759,0.569C3.683,0.537,3.603,0.515,3.52,0.501L0.667,0.522c-0.292,0-0.489,0.066-0.594,0.198
		L0.031,0.782C0.011,0.817,0,0.872,0,0.949c0,0.076,0.021,0.17,0.063,0.281C0.48,2.209,0.932,3.153,1.422,4.062
		c0.489,0.909,0.915,1.642,1.276,2.197s0.729,1.08,1.104,1.572C4.177,8.324,4.425,8.64,4.546,8.779
		c0.122,0.139,0.217,0.243,0.286,0.312l0.26,0.25C5.259,9.508,5.503,9.708,5.826,9.94c0.323,0.233,0.68,0.462,1.073,0.688
		c0.392,0.225,0.849,0.409,1.369,0.552c0.521,0.142,1.027,0.2,1.52,0.172h1.198c0.243-0.021,0.427-0.097,0.552-0.229l0.041-0.052
		c0.028-0.041,0.054-0.106,0.078-0.192c0.024-0.087,0.036-0.182,0.036-0.286c-0.007-0.298,0.016-0.567,0.068-0.807
		c0.052-0.239,0.111-0.42,0.177-0.541s0.141-0.224,0.224-0.307s0.143-0.134,0.177-0.151c0.035-0.017,0.062-0.029,0.083-0.036
		c0.167-0.056,0.363-0.002,0.589,0.162c0.226,0.163,0.437,0.365,0.635,0.604c0.198,0.24,0.436,0.508,0.713,0.807
		c0.278,0.299,0.521,0.52,0.729,0.666l0.208,0.125c0.139,0.083,0.32,0.16,0.542,0.229s0.416,0.087,0.583,0.052l2.666-0.042
		c0.264,0,0.469-0.044,0.614-0.13c0.146-0.087,0.232-0.182,0.26-0.286s0.029-0.222,0.005-0.354
		C19.942,10.449,19.918,10.357,19.894,10.305z"/>
</g>
</svg>
