<?xml version="1.0" encoding="utf-8"?>
<!-- Generator: Adobe Illustrator 17.0.0, SVG Export Plug-In . SVG Version: 6.00 Build 0)  -->
<!DOCTYPE svg PUBLIC "-//W3C//DTD SVG 1.1//EN" "http://www.w3.org/Graphics/SVG/1.1/DTD/svg11.dtd" [
	<!ENTITY ns_extend "http://ns.adobe.com/Extensibility/1.0/">
	<!ENTITY ns_ai "http://ns.adobe.com/AdobeIllustrator/10.0/">
	<!ENTITY ns_graphs "http://ns.adobe.com/Graphs/1.0/">
	<!ENTITY ns_vars "http://ns.adobe.com/Variables/1.0/">
	<!ENTITY ns_imrep "http://ns.adobe.com/ImageReplacement/1.0/">
	<!ENTITY ns_sfw "http://ns.adobe.com/SaveForWeb/1.0/">
	<!ENTITY ns_custom "http://ns.adobe.com/GenericCustomNamespace/1.0/">
	<!ENTITY ns_adobe_xpath "http://ns.adobe.com/XPath/1.0/">
]>
<svg version="1.1" id="Capa_1" xmlns:x="&ns_extend;" xmlns:i="&ns_ai;" xmlns:graph="&ns_graphs;"
	 xmlns="http://www.w3.org/2000/svg" xmlns:xlink="http://www.w3.org/1999/xlink" x="0px" y="0px" width="20px" height="15.257px"
	 viewBox="490 492.371 20 15.257" enable-background="new 490 492.371 20 15.257" xml:space="preserve">
<metadata>
	<sfw  xmlns="&ns_sfw;">
		<slices></slices>
		<sliceSourceBounds  width="20" height="15.257" y="492.871" x="489.5" bottomLeftOrigin="true"></sliceSourceBounds>
	</sfw>
</metadata>
<g>
	<g>
		<rect x="490" y="492.371" width="20" height="3.15"/>
	</g>
</g>
<g>
	<g>
		<path d="M500.22,501.289c-0.435,0-0.786,0.351-0.786,0.786s0.351,0.786,0.786,0.786c0.435,0,0.786-0.351,0.786-0.786
			S500.655,501.289,500.22,501.289z"/>
	</g>
</g>
<g>
	<g>
		<path d="M490.878,496.719v1.788c0,2.435,0.95,4.727,2.671,6.451c1.725,1.725,4.012,2.671,6.451,2.671s4.727-0.95,6.451-2.671
			c1.721-1.725,2.671-4.012,2.671-6.451v-1.788H490.878z M500.22,506.267c-2.311,0-4.188-1.88-4.188-4.188
			c0-2.311,1.88-4.188,4.188-4.188c2.307,0,4.192,1.876,4.192,4.184C504.411,504.387,502.531,506.267,500.22,506.267z"/>
	</g>
</g>
</svg>
