<?xml version="1.0" encoding="utf-8"?>
<!-- Generator: Adobe Illustrator 17.0.0, SVG Export Plug-In . SVG Version: 6.00 Build 0)  -->
<!DOCTYPE svg PUBLIC "-//W3C//DTD SVG 1.1//EN" "http://www.w3.org/Graphics/SVG/1.1/DTD/svg11.dtd" [
	<!ENTITY ns_extend "http://ns.adobe.com/Extensibility/1.0/">
	<!ENTITY ns_ai "http://ns.adobe.com/AdobeIllustrator/10.0/">
	<!ENTITY ns_graphs "http://ns.adobe.com/Graphs/1.0/">
	<!ENTITY ns_vars "http://ns.adobe.com/Variables/1.0/">
	<!ENTITY ns_imrep "http://ns.adobe.com/ImageReplacement/1.0/">
	<!ENTITY ns_sfw "http://ns.adobe.com/SaveForWeb/1.0/">
	<!ENTITY ns_custom "http://ns.adobe.com/GenericCustomNamespace/1.0/">
	<!ENTITY ns_adobe_xpath "http://ns.adobe.com/XPath/1.0/">
]>
<svg version="1.1" id="Capa_1" xmlns:x="&ns_extend;" xmlns:i="&ns_ai;" xmlns:graph="&ns_graphs;"
	 xmlns="http://www.w3.org/2000/svg" xmlns:xlink="http://www.w3.org/1999/xlink" x="0px" y="0px" width="12.891px" height="20px"
	 viewBox="493.555 490 12.891 20" enable-background="new 493.555 490 12.891 20" xml:space="preserve">
<metadata>
	<sfw  xmlns="&ns_sfw;">
		<slices></slices>
		<sliceSourceBounds  width="12.891" height="20" y="490.5" x="493.055" bottomLeftOrigin="true"></sliceSourceBounds>
	</sfw>
</metadata>
<g>
	<g>
		<path d="M502.344,505.273c-0.323,0-0.586,0.263-0.586,0.586s0.263,0.586,0.586,0.586s0.586-0.263,0.586-0.586
			S502.667,505.273,502.344,505.273z"/>
	</g>
</g>
<g>
	<g>
		<path d="M500,493.555c-0.969,0-1.758,0.789-1.758,1.758s0.789,1.758,1.758,1.758s1.758-0.789,1.758-1.758
			S500.969,493.555,500,493.555z M500,495.898c-0.324,0-0.586-0.262-0.586-0.586c0-0.324,0.262-0.586,0.586-0.586
			s0.586,0.262,0.586,0.586C500.586,495.636,500.324,495.898,500,495.898z"/>
	</g>
</g>
<g>
	<g>
		<path d="M504.688,490h-9.375c-0.969,0-1.758,0.789-1.758,1.758v16.484c0,0.969,0.789,1.758,1.758,1.758h9.375
			c0.969,0,1.758-0.789,1.758-1.758v-16.484C506.445,490.789,505.657,490,504.688,490z M500,492.383c1.615,0,2.93,1.314,2.93,2.93
			s-1.314,2.93-2.93,2.93s-2.93-1.314-2.93-2.93S498.385,492.383,500,492.383z M496.484,507.617c-0.324,0-0.586-0.262-0.586-0.586
			c0-0.324,0.262-0.586,0.586-0.586s0.586,0.262,0.586,0.586C497.07,507.355,496.808,507.617,496.484,507.617z M496.484,505.273
			c-0.324,0-0.586-0.262-0.586-0.586c0-0.324,0.262-0.586,0.586-0.586s0.586,0.262,0.586,0.586
			C497.07,505.011,496.808,505.273,496.484,505.273z M496.484,502.93c-0.324,0-0.586-0.262-0.586-0.586
			c0-0.324,0.262-0.586,0.586-0.586s0.586,0.262,0.586,0.586C497.07,502.667,496.808,502.93,496.484,502.93z M498.828,507.617
			c-0.324,0-0.586-0.262-0.586-0.586c0-0.324,0.262-0.586,0.586-0.586s0.586,0.262,0.586,0.586
			C499.414,507.355,499.152,507.617,498.828,507.617z M498.828,505.273c-0.324,0-0.586-0.262-0.586-0.586
			c0-0.324,0.262-0.586,0.586-0.586s0.586,0.262,0.586,0.586C499.414,505.011,499.152,505.273,498.828,505.273z M498.828,502.93
			c-0.324,0-0.586-0.262-0.586-0.586c0-0.324,0.262-0.586,0.586-0.586s0.586,0.262,0.586,0.586
			C499.414,502.667,499.152,502.93,498.828,502.93z M502.344,507.617c-0.969,0-1.758-0.789-1.758-1.758s0.789-1.758,1.758-1.758
			s1.758,0.789,1.758,1.758S503.313,507.617,502.344,507.617z M500.586,502.344c0-0.324,0.262-0.586,0.586-0.586
			s0.586,0.262,0.586,0.586c0,0.324-0.262,0.586-0.586,0.586S500.586,502.667,500.586,502.344z M503.516,502.93
			c-0.324,0-0.586-0.262-0.586-0.586c0-0.324,0.262-0.586,0.586-0.586s0.586,0.262,0.586,0.586
			C504.102,502.667,503.839,502.93,503.516,502.93z M503.516,500.586h-7.031c-0.324,0-0.586-0.262-0.586-0.586
			s0.262-0.586,0.586-0.586h7.031c0.324,0,0.586,0.262,0.586,0.586S503.839,500.586,503.516,500.586z"/>
	</g>
</g>
</svg>
