<?xml version="1.0" encoding="utf-8"?>
<!-- Generator: Adobe Illustrator 17.0.0, SVG Export Plug-In . SVG Version: 6.00 Build 0)  -->
<!DOCTYPE svg PUBLIC "-//W3C//DTD SVG 1.1//EN" "http://www.w3.org/Graphics/SVG/1.1/DTD/svg11.dtd" [
	<!ENTITY ns_extend "http://ns.adobe.com/Extensibility/1.0/">
	<!ENTITY ns_ai "http://ns.adobe.com/AdobeIllustrator/10.0/">
	<!ENTITY ns_graphs "http://ns.adobe.com/Graphs/1.0/">
	<!ENTITY ns_vars "http://ns.adobe.com/Variables/1.0/">
	<!ENTITY ns_imrep "http://ns.adobe.com/ImageReplacement/1.0/">
	<!ENTITY ns_sfw "http://ns.adobe.com/SaveForWeb/1.0/">
	<!ENTITY ns_custom "http://ns.adobe.com/GenericCustomNamespace/1.0/">
	<!ENTITY ns_adobe_xpath "http://ns.adobe.com/XPath/1.0/">
]>
<svg version="1.1" id="Capa_1" xmlns:x="&ns_extend;" xmlns:i="&ns_ai;" xmlns:graph="&ns_graphs;"
	 xmlns="http://www.w3.org/2000/svg" xmlns:xlink="http://www.w3.org/1999/xlink" x="0px" y="0px" width="15px" height="20px"
	 viewBox="492.5 490 15 20" enable-background="new 492.5 490 15 20" xml:space="preserve">
<metadata>
	<sfw  xmlns="&ns_sfw;">
		<slices></slices>
		<sliceSourceBounds  width="15" height="20" y="490.5" x="492" bottomLeftOrigin="true"></sliceSourceBounds>
	</sfw>
</metadata>
<g>
	<g>
		<g>
			<path d="M496.667,501.133v5.235c0.404,0.109,1.39,0.299,3.334,0.299c1.94,0,2.925-0.19,3.333-0.299v-5.235
				c-0.404-0.109-1.389-0.299-3.333-0.299C498.059,500.833,497.075,501.023,496.667,501.133z"/>
			<path d="M507.083,490h-14.167c-0.23,0-0.417,0.186-0.417,0.417v1.667c0,0.23,0.186,0.417,0.417,0.417h5.833v1.7
				c-2.596,0.144-3.642,0.732-4.432,1.177l-0.15,0.084c-0.515,0.286-0.835,0.839-0.835,1.445v10.356c0,0.605,0.32,1.159,0.835,1.444
				l0.15,0.084c0.907,0.51,2.148,1.21,5.682,1.21s4.776-0.699,5.682-1.21l0.15-0.084c0.515-0.286,0.835-0.839,0.835-1.444v-10.356
				c0-0.605-0.32-1.159-0.835-1.444l-0.15-0.084c-0.79-0.445-1.836-1.033-4.432-1.177v-1.7h5.833c0.23,0,0.417-0.186,0.417-0.417
				v-1.667C507.5,490.186,507.314,490,507.083,490z M500,496.667c0.459,0,0.833,0.374,0.833,0.833s-0.374,0.833-0.833,0.833
				s-0.833-0.374-0.833-0.833S499.541,496.667,500,496.667z M503.936,500.461c0.141,0.071,0.23,0.215,0.23,0.373v5.833
				c0,0.158-0.089,0.302-0.23,0.373c-0.094,0.047-1.005,0.461-3.936,0.461s-3.843-0.413-3.937-0.461
				c-0.141-0.07-0.23-0.215-0.23-0.373v-5.833c0-0.158,0.089-0.302,0.23-0.373c0.094-0.047,1.006-0.461,3.936-0.461
				S503.842,500.413,503.936,500.461z"/>
		</g>
	</g>
</g>
</svg>
