<?xml version="1.0" encoding="utf-8"?>
<!-- Generator: Adobe Illustrator 17.0.0, SVG Export Plug-In . SVG Version: 6.00 Build 0)  -->
<!DOCTYPE svg PUBLIC "-//W3C//DTD SVG 1.1//EN" "http://www.w3.org/Graphics/SVG/1.1/DTD/svg11.dtd" [
	<!ENTITY ns_extend "http://ns.adobe.com/Extensibility/1.0/">
	<!ENTITY ns_ai "http://ns.adobe.com/AdobeIllustrator/10.0/">
	<!ENTITY ns_graphs "http://ns.adobe.com/Graphs/1.0/">
	<!ENTITY ns_vars "http://ns.adobe.com/Variables/1.0/">
	<!ENTITY ns_imrep "http://ns.adobe.com/ImageReplacement/1.0/">
	<!ENTITY ns_sfw "http://ns.adobe.com/SaveForWeb/1.0/">
	<!ENTITY ns_custom "http://ns.adobe.com/GenericCustomNamespace/1.0/">
	<!ENTITY ns_adobe_xpath "http://ns.adobe.com/XPath/1.0/">
]>
<svg version="1.1" id="Capa_1" xmlns:x="&ns_extend;" xmlns:i="&ns_ai;" xmlns:graph="&ns_graphs;"
	 xmlns="http://www.w3.org/2000/svg" xmlns:xlink="http://www.w3.org/1999/xlink" x="0px" y="0px" width="15.805px" height="20px"
	 viewBox="492.092 490.003 15.805 20" enable-background="new 492.092 490.003 15.805 20" xml:space="preserve">
<metadata>
	<sfw  xmlns="&ns_sfw;">
		<slices></slices>
		<sliceSourceBounds  width="15.805" height="20" y="490.497" x="491.592" bottomLeftOrigin="true"></sliceSourceBounds>
	</sfw>
</metadata>
<g>
	<g>
		<circle fill="#010002" cx="495.942" cy="491.865" r="1.862"/>
		<path fill="#010002" d="M507.649,507.855c-2.219-3.313-4.757-7.627-5.184-8.356c-0.039-0.132-0.09-0.266-0.16-0.401
			c-0.507-0.988-1.037-1.965-1.578-2.935c0.573,0.045,1.148,0.089,1.721,0.134c0.394,0.777,0.786,1.554,1.18,2.33
			c0.633,1.251,2.508,0.15,1.876-1.097c-0.507-1.002-1.108-3.255-2.417-3.357c-1.393-0.108-2.785-0.216-4.177-0.324
			c-0.034-0.003-0.063,0.002-0.095,0.002c-1.053-0.282-2.286,0.461-2.51,1.534c-0.712,1.541-1.734,2.745-3.449,3.247
			c-1.342,0.393-0.77,2.49,0.578,2.095c1.695-0.496,2.913-1.468,3.836-2.746c0.559,0.997,1.105,2,1.628,3.017
			c-1.15,0.793-2.155,1.753-3.036,2.86c-0.246,0.309-0.288,0.626-0.205,0.906c-0.003,0.104,0.003,0.213,0.033,0.33
			c0.339,1.342,0.677,2.681,1.017,4.021c0.36,1.428,2.621,1.022,2.258-0.415c-0.323-1.277-0.646-2.554-0.968-3.832
			c0.809-0.954,1.763-1.784,2.853-2.404c0.257-0.146,0.418-0.347,0.508-0.569c1.491,2.285,2.983,5.447,4.473,7.363
			C506.74,510.426,508.56,509.026,507.649,507.855z"/>
	</g>
</g>
</svg>
