<?xml version="1.0" encoding="utf-8"?>
<!-- Generator: Adobe Illustrator 17.0.0, SVG Export Plug-In . SVG Version: 6.00 Build 0)  -->
<!DOCTYPE svg PUBLIC "-//W3C//DTD SVG 1.1//EN" "http://www.w3.org/Graphics/SVG/1.1/DTD/svg11.dtd" [
	<!ENTITY ns_extend "http://ns.adobe.com/Extensibility/1.0/">
	<!ENTITY ns_ai "http://ns.adobe.com/AdobeIllustrator/10.0/">
	<!ENTITY ns_graphs "http://ns.adobe.com/Graphs/1.0/">
	<!ENTITY ns_vars "http://ns.adobe.com/Variables/1.0/">
	<!ENTITY ns_imrep "http://ns.adobe.com/ImageReplacement/1.0/">
	<!ENTITY ns_sfw "http://ns.adobe.com/SaveForWeb/1.0/">
	<!ENTITY ns_custom "http://ns.adobe.com/GenericCustomNamespace/1.0/">
	<!ENTITY ns_adobe_xpath "http://ns.adobe.com/XPath/1.0/">
]>
<svg version="1.1" id="Capa_1" xmlns:x="&ns_extend;" xmlns:i="&ns_ai;" xmlns:graph="&ns_graphs;"
	 xmlns="http://www.w3.org/2000/svg" xmlns:xlink="http://www.w3.org/1999/xlink" x="0px" y="0px" width="20px" height="14.928px"
	 viewBox="190.965 193.501 20 14.928" enable-background="new 190.965 193.501 20 14.928" xml:space="preserve">
<metadata>
	<sfw  xmlns="&ns_sfw;">
		<slices></slices>
		<sliceSourceBounds  width="20" height="14.928" y="493.036" x="489.5" bottomLeftOrigin="true"></sliceSourceBounds>
	</sfw>
</metadata>
<g>
	<g>
		<path d="M210.667,200.31l-13.54-6.752c-0.267-0.133-0.59-0.025-0.723,0.242l-2.889,5.792c-0.064,0.128-0.074,0.276-0.029,0.412
			c0.045,0.136,0.143,0.248,0.271,0.312l4.043,2.016l-0.359,0.719c-0.133,0.267-0.025,0.59,0.242,0.723l0.127,0.064l-0.697,1.24
			h-4.107c-0.382-0.739-1.152-1.244-2.042-1.244v4.595c0.869,0,1.624-0.482,2.015-1.193h4.765c0.39,0,0.75-0.21,0.941-0.55
			l1.058-1.883l0.184,0.092c0.267,0.133,0.59,0.025,0.723-0.242l0.359-0.719l3.02,1.506c0.174,0.087,0.382,0.073,0.543-0.036
			l0.834-0.564l1.488,0.742c0.076,0.038,0.158,0.057,0.241,0.057c0.058,0,0.115-0.009,0.171-0.028
			c0.136-0.045,0.248-0.143,0.312-0.271l1.524-3.056l1.58-1.04c0.161-0.106,0.253-0.29,0.242-0.483
			C210.953,200.568,210.839,200.396,210.667,200.31z"/>
	</g>
</g>
</svg>
