<?xml version="1.0" encoding="utf-8"?>
<!-- Generator: Adobe Illustrator 17.0.0, SVG Export Plug-In . SVG Version: 6.00 Build 0)  -->
<!DOCTYPE svg PUBLIC "-//W3C//DTD SVG 1.1//EN" "http://www.w3.org/Graphics/SVG/1.1/DTD/svg11.dtd" [
	<!ENTITY ns_extend "http://ns.adobe.com/Extensibility/1.0/">
	<!ENTITY ns_ai "http://ns.adobe.com/AdobeIllustrator/10.0/">
	<!ENTITY ns_graphs "http://ns.adobe.com/Graphs/1.0/">
	<!ENTITY ns_vars "http://ns.adobe.com/Variables/1.0/">
	<!ENTITY ns_imrep "http://ns.adobe.com/ImageReplacement/1.0/">
	<!ENTITY ns_sfw "http://ns.adobe.com/SaveForWeb/1.0/">
	<!ENTITY ns_custom "http://ns.adobe.com/GenericCustomNamespace/1.0/">
	<!ENTITY ns_adobe_xpath "http://ns.adobe.com/XPath/1.0/">
]>
<svg version="1.1" id="Capa_1" xmlns:x="&ns_extend;" xmlns:i="&ns_ai;" xmlns:graph="&ns_graphs;"
	 xmlns="http://www.w3.org/2000/svg" xmlns:xlink="http://www.w3.org/1999/xlink" x="0px" y="0px" width="20px" height="20px"
	 viewBox="256.667 256.667 20 20" enable-background="new 256.667 256.667 20 20" xml:space="preserve">
<metadata>
	<sfw  xmlns="&ns_sfw;">
		<slices></slices>
		<sliceSourceBounds  width="20" height="20" y="490.5" x="489.5" bottomLeftOrigin="true"></sliceSourceBounds>
	</sfw>
</metadata>
<g>
	<path d="M266.667,256.667c-5.523,0-10,4.477-10,10c0,5.523,4.477,10,10,10c5.523,0,10-4.477,10-10
		C276.667,261.144,272.19,256.667,266.667,256.667z M270.417,261.667c0.69,0,1.25,0.839,1.25,1.875s-0.56,1.875-1.25,1.875
		s-1.25-0.839-1.25-1.875S269.727,261.667,270.417,261.667z M262.917,261.667c0.69,0,1.25,0.839,1.25,1.875s-0.56,1.875-1.25,1.875
		s-1.25-0.839-1.25-1.875S262.227,261.667,262.917,261.667z M266.667,274.167c-3.259,0-5.965-2.732-6.25-6.217
		c1.831,1.057,3.985,1.661,6.25,1.661s4.419-0.602,6.25-1.659C272.632,271.438,269.926,274.167,266.667,274.167z"/>
</g>
</svg>
