<?xml version="1.0" encoding="utf-8"?>
<!-- Generator: Adobe Illustrator 17.0.0, SVG Export Plug-In . SVG Version: 6.00 Build 0)  -->
<!DOCTYPE svg PUBLIC "-//W3C//DTD SVG 1.1//EN" "http://www.w3.org/Graphics/SVG/1.1/DTD/svg11.dtd">
<svg version="1.1" id="Capa_1" xmlns="http://www.w3.org/2000/svg" xmlns:xlink="http://www.w3.org/1999/xlink" x="0px" y="0px"
	 width="109.879px" height="80px" viewBox="-16.039 -322.104 109.879 80" enable-background="new -16.039 -322.104 109.879 80"
	 xml:space="preserve" fill="#51818C">
<path d="M-2.477-313.122h-4.521h-2.26h-2.26c-2.492,0-4.521,2.027-4.521,4.52v11.301l0.321,2.26c1.011,3.888,4.519,6.781,8.72,6.781
	c4.986,0,9.041-4.056,9.041-9.041v-11.301C2.044-311.094,0.016-313.122-2.477-313.122z M-6.996-290.519
	c-3.739,0-6.781-3.042-6.781-6.781v-11.301c0-1.246,1.013-2.26,2.26-2.26h9.041c1.247,0,2.26,1.014,2.26,2.26v11.301l0,0
	C-0.216-293.561-3.257-290.519-6.996-290.519z M-4.736-306.341h-1.13v-1.13c0-0.625-0.505-1.13-1.13-1.13s-1.13,0.505-1.13,1.13
	v1.13h-1.13c-0.625,0-1.13,0.505-1.13,1.13s0.505,1.13,1.13,1.13h1.13v1.13c0,0.625,0.505,1.13,1.13,1.13s1.13-0.505,1.13-1.13
	v-1.13h1.13c0.625,0,1.13-0.505,1.13-1.13S-4.112-306.341-4.736-306.341z M-4.736-297.3h-4.521c-0.625,0-1.13,0.505-1.13,1.13
	s0.505,1.13,1.13,1.13h4.521c0.625,0,1.13-0.505,1.13-1.13C-3.606-296.794-4.112-297.3-4.736-297.3z M86.069-320.991l-0.015-0.077
	c-0.113-0.6-0.637-1.036-1.245-1.036H17.398c-0.068,0-0.134,0.005-0.201,0.015c-6.746,1.07-11.107,9.5-11.107,21.477
	c0,11.1,3.736,19.201,9.75,21.143l0.289,0.093v11.201H-1.558v-7.009c0-2.64-2.148-4.787-4.787-4.787h-3.072
	c-2.639,0-4.788,2.148-4.789,4.788v24.982c0,2.64,2.148,4.787,4.787,4.787h3.072c2.64,0,4.787-2.148,4.787-4.787v-5.324h17.886
	l0.1,0.274c0.677,1.852,2.443,3.097,4.395,3.097h3.261c2.589,0,4.695-2.106,4.695-4.695v-22.27h35.808
	c3.039,0,5.884-2.176,8.012-6.128c2.172-4.034,3.368-9.49,3.368-15.364c0-2.896-0.31-5.742-0.92-8.461l-0.104-0.461l0.471-0.045
	c3.899-0.371,6.805-1.679,8.637-3.888C86.643-316.59,86.164-320.387,86.069-320.991z M-4.094-250.203c0,1.241-1.009,2.25-2.25,2.25
	h-3.072c-1.241,0-2.25-1.009-2.25-2.25v-24.983c0-1.241,1.009-2.25,2.25-2.25h3.072c1.241,0,2.25,1.009,2.25,2.25
	C-4.094-275.186-4.094-250.203-4.094-250.203z M8.668-302.311c0.423-11.626,5.004-16.557,8.799-17.248l0.037-0.007h61.12
	l-1.571,0.789c-3.1,1.557-5.902,3.25-8.104,4.896c-0.121,0.09-0.236,0.179-0.352,0.269l-0.086,0.066
	c-0.285,0.221-0.616,0.478-0.927,0.739c-0.353,0.295-0.696,0.598-1.05,0.929c-0.135,0.127-0.267,0.254-0.398,0.383
	c-0.201,0.199-0.396,0.401-0.58,0.6l-0.019,0.019c-0.023,0.022-0.048,0.042-0.073,0.062l-0.01,0.008
	c-0.033,0.037-0.062,0.073-0.091,0.109c-0.035,0.043-0.07,0.086-0.108,0.129c-0.071,0.079-0.138,0.156-0.203,0.233
	c-0.028,0.034-0.058,0.072-0.088,0.11c-0.023,0.03-0.046,0.059-0.07,0.089l-0.076,0.093c-0.099,0.121-0.192,0.235-0.277,0.349
	c-0.208,0.279-0.395,0.55-0.553,0.805c-0.014,0.022-0.027,0.04-0.039,0.057l-0.013,0.018l-0.123,0.191l-0.228,0.001H51.106
	c-0.339,0-0.657,0.132-0.897,0.372l-6.369,6.369H8.653L8.668-302.311z M66.69-302.859c0,4.128-1.343,6.474-1.755,7.094l-0.347,0.523
	l-0.347-0.523c-0.412-0.62-1.755-2.962-1.755-7.095c0-0.99,0.08-1.959,0.237-2.881l0.059-0.347h1.804
	c0.153,0,0.312-0.038,0.501-0.12c0.042-0.017,0.072-0.029,0.102-0.045c0.148-0.079,0.277-0.184,0.378-0.308l0.03-0.033
	c0.004-0.004,0.007-0.007,0.011-0.01l0.509-0.764l0.209,0.96C66.566-305.302,66.69-304.108,66.69-302.859z M16.131-258.062H-1.555
	v-7.575h17.686V-258.062z M26.242-256.849c0,1.19-0.968,2.158-2.158,2.158h-3.261c-1.189,0-2.156-0.968-2.156-2.158v-22.27h7.575
	V-256.849z M17.5-281.656l-0.037-0.007c-3.794-0.69-8.375-5.621-8.799-17.248l-0.016-0.432H44.36c0.339,0,0.657-0.132,0.897-0.372
	l6.369-6.369h1.577v5.473c0,0.786,0.031,1.621,0.093,2.554c0.011,0.172,0.027,0.34,0.042,0.508c0.008,0.085,0.016,0.17,0.023,0.255
	c0.052,0.596,0.117,1.191,0.195,1.768l0.024,0.174c0.028,0.202,0.056,0.404,0.087,0.605c0.097,0.617,0.216,1.253,0.351,1.89
	c0.016,0.071,0.03,0.146,0.044,0.221c0.015,0.079,0.03,0.159,0.048,0.237c0.173,0.752,0.371,1.495,0.589,2.21
	c0.031,0.103,0.065,0.202,0.098,0.3c0.025,0.074,0.051,0.149,0.075,0.225c0.189,0.58,0.371,1.091,0.554,1.56
	c0.083,0.21,0.168,0.418,0.254,0.624c0.197,0.468,0.411,0.936,0.636,1.392c0.031,0.062,0.061,0.125,0.091,0.188
	c0.047,0.099,0.094,0.198,0.145,0.293c0.33,0.627,0.646,1.168,0.967,1.658c0.021,0.032,0.045,0.064,0.068,0.095
	c0.027,0.037,0.054,0.073,0.081,0.112c0.294,0.434,0.6,0.844,0.91,1.22c0.03,0.036,0.058,0.076,0.086,0.115
	c0.016,0.022,0.031,0.045,0.048,0.065l0.581,0.686H17.5z M70.669-287.063c-1.69,3.435-3.906,5.405-6.079,5.405
	c-2.118,0-4.323-2.037-6.05-5.588c-1.802-3.704-2.794-8.451-2.794-13.366c0-1.704,0.117-3.424,0.348-5.112l0.049-0.36h4.079
	l-0.067,0.475c-0.138,0.983-0.205,1.883-0.205,2.751c0,5.368,2.211,10.256,4.639,10.256c2.428,0,4.639-4.888,4.639-10.256
	c0-3.023-0.646-5.241-1.188-6.57l-0.107-0.262l0.205-0.196c0.814-0.779,1.697-1.509,2.7-2.233l0.55-0.385l0.186,0.509
	c1.214,3.321,1.855,7.258,1.855,11.386C73.43-295.494,72.45-290.682,70.669-287.063z M83.498-318.241
	c-0.212,1.241-0.692,2.313-1.425,3.186c-1.497,1.779-4.026,2.793-7.517,3.016l-0.318,0.02l-0.103-0.302
	c-0.13-0.38-0.285-0.826-0.458-1.259l-0.131-0.329l0.303-0.182c3.564-2.144,7.214-3.804,9.073-4.603l0.705-0.303L83.498-318.241z
	 M32.566-290.499c0.931,0,1.685,0.754,1.685,1.685s-0.754,1.685-1.685,1.685c-0.931,0-1.685-0.754-1.685-1.685
	S31.635-290.499,32.566-290.499z M32.566-286.712c-1.159,0-2.102-0.943-2.102-2.102s0.943-2.102,2.102-2.102
	c1.159,0,2.102,0.943,2.102,2.102S33.726-286.712,32.566-286.712z M32.566-290.083c-0.7,0-1.269,0.569-1.269,1.269
	s0.569,1.269,1.269,1.269c0.699,0,1.268-0.569,1.268-1.269S33.267-290.083,32.566-290.083z M39.308-290.499
	c0.931,0,1.685,0.754,1.685,1.685s-0.754,1.685-1.685,1.685c-0.931,0-1.685-0.754-1.685-1.685S38.377-290.499,39.308-290.499z
	 M39.308-286.712c-1.159,0-2.102-0.943-2.102-2.102s0.943-2.102,2.102-2.102c1.159,0,2.102,0.943,2.102,2.102
	C41.409-287.655,40.466-286.712,39.308-286.712z M39.308-290.083c-0.7,0-1.269,0.569-1.269,1.269s0.569,1.269,1.269,1.269
	c0.699,0,1.268-0.569,1.268-1.269S40.008-290.083,39.308-290.083z M46.049-290.499c0.931,0,1.685,0.754,1.685,1.685
	s-0.754,1.685-1.685,1.685c-0.931,0-1.685-0.754-1.685-1.685S45.118-290.499,46.049-290.499z M46.049-286.712
	c-1.159,0-2.102-0.943-2.102-2.102s0.943-2.102,2.102-2.102c1.159,0,2.102,0.943,2.102,2.102S47.208-286.712,46.049-286.712z
	 M46.049-290.083c-0.699,0-1.268,0.569-1.268,1.269s0.569,1.269,1.268,1.269c0.7,0,1.269-0.569,1.269-1.269
	S46.748-290.083,46.049-290.083z M81.904-290.428c5.713,0,10.344,4.631,10.344,10.344c0,0.439,0.356,0.796,0.796,0.796
	c0.44,0,0.796-0.356,0.796-0.796c0-6.592-5.343-11.935-11.935-11.935c-0.439,0-0.796,0.356-0.796,0.796
	S81.465-290.428,81.904-290.428z M81.904-287.246c1.899-0.001,3.722,0.753,5.065,2.096c1.344,1.343,2.098,3.165,2.096,5.065
	c0,0.439,0.356,0.796,0.796,0.796s0.796-0.356,0.796-0.796c0.001-2.322-0.92-4.549-2.562-6.19c-1.641-1.642-3.868-2.564-6.19-2.562
	c-0.439,0-0.796,0.356-0.796,0.796S81.465-287.246,81.904-287.246z M81.904-284.063h0.021c2.191,0.007,3.962,1.787,3.957,3.978
	c0,0.439,0.356,0.796,0.796,0.796s0.796-0.356,0.796-0.796c0.004-3.068-2.477-5.56-5.546-5.57h-0.024
	c-0.439,0-0.796,0.356-0.796,0.796C81.109-284.419,81.465-284.063,81.904-284.063z M83.439-267.241h-2.095v-12.569
	c0-0.579-0.469-1.047-1.047-1.047s-1.047,0.469-1.047,1.047v12.569H37.353c-1.735,0-3.142,1.407-3.142,3.142v1.047v2.095v12.569
	v2.095v1.047c0,1.735,1.407,3.142,3.142,3.142H83.44c1.735,0,3.142-1.407,3.142-3.142V-264.1
	C86.581-265.834,85.174-267.241,83.439-267.241z M84.486-245.245c0,0.579-0.469,1.047-1.047,1.047H37.352
	c-0.578,0-1.047-0.469-1.047-1.047v-18.854c0-0.579,0.469-1.047,1.047-1.047h46.087c0.578,0,1.047,0.469,1.047,1.047V-245.245z
	 M67.727-255.719v6.285c0,0.579,0.469,1.047,1.047,1.047h10.474c0.578,0,1.047-0.469,1.047-1.047v-6.285
	c0-0.579-0.469-1.047-1.047-1.047H68.773C68.195-256.767,67.727-256.298,67.727-255.719z M69.821-254.672H78.2v4.19h-8.379V-254.672
	z M80.295-258.862h-4.19v-2.095h4.19V-258.862z M75.059-258.862h-4.19v-2.095h4.19V-258.862z M69.821-258.862h-4.19v-2.095h4.19
	V-258.862z M40.493-262.004h-2.095v-2.095h2.095V-262.004z"/>
</svg>
