<?xml version="1.0" encoding="utf-8"?>
<!-- Generator: Adobe Illustrator 17.0.0, SVG Export Plug-In . SVG Version: 6.00 Build 0)  -->
<!DOCTYPE svg PUBLIC "-//W3C//DTD SVG 1.1//EN" "http://www.w3.org/Graphics/SVG/1.1/DTD/svg11.dtd">
<svg version="1.1" id="Capa_1" xmlns="http://www.w3.org/2000/svg" xmlns:xlink="http://www.w3.org/1999/xlink" x="0px" y="0px"
	 width="98.749px" height="80.001px" viewBox="10.108 -6.018 98.749 80.001" enable-background="new 10.108 -6.018 98.749 80.001"
	 xml:space="preserve" fill="#51818C">
<path d="M108.41,43.134l-7.795-12.093c-0.498-0.773-1.529-0.996-2.302-0.498l-2.531,1.632l-1.014-1.573l4.891-3.154
	c0.165-0.103,0.311-0.232,0.434-0.382c0.81-0.958,0.904-2.331,0.232-3.389l-8.108-12.576c-0.842-1.299-2.575-1.674-3.878-0.838
	l-4.717,3.041l-1.014-1.57l1.746-1.125c0.165-0.103,0.311-0.232,0.434-0.382c0.81-0.958,0.904-2.331,0.231-3.39L77.225-5.256
	c-0.498-0.772-1.528-0.994-2.301-0.497l-5.85,3.775c-0.165,0.103-0.312,0.232-0.435,0.381c-0.81,0.958-0.903,2.331-0.231,3.389
	l7.177,11.132c0.841,1.301,2.576,1.676,3.879,0.838l1.572-1.013l1.014,1.572l-4.892,3.153c-0.164,0.103-0.311,0.232-0.434,0.382
	c-0.809,0.958-0.903,2.33-0.23,3.388l3.547,5.503l-1.728,1.114c-0.94-0.701-2.212-0.762-3.215-0.153
	c-0.626,0.396-1.065,1.03-1.215,1.755c-0.001,0.004-0.002,0.009-0.003,0.013s-0.002,0.007-0.003,0.012
	c-0.324,1.489,0.61,2.963,2.096,3.305l0.076,0.016c0.718,0.156,1.469,0.017,2.085-0.384c0.995-0.646,1.475-1.847,1.201-3.001
	l1.725-1.112l3.547,5.504c0.841,1.299,2.575,1.674,3.878,0.838l4.717-3.041l1.014,1.572l-1.747,1.126
	c-0.164,0.101-0.311,0.228-0.433,0.377c-0.81,0.957-0.904,2.33-0.231,3.389l7.173,11.133c0.839,1.303,2.577,1.678,3.879,0.838
	l4.889-3.151c0.165-0.103,0.312-0.232,0.435-0.381C108.988,45.562,109.082,44.191,108.41,43.134z M78.574,11.971
	c-0.207,0.134-0.459,0.18-0.7,0.128c-0.242-0.052-0.452-0.198-0.585-0.405L70.177,0.659c-0.278-0.432-0.153-1.007,0.278-1.285
	l4.686-3.021c0.207-0.133,0.459-0.18,0.7-0.127c0.241,0.052,0.452,0.198,0.585,0.405l7.113,11.035
	c0.278,0.431,0.154,1.006-0.278,1.285L78.574,11.971z M76.698,30.637c-0.051,0.002-0.103,0-0.153-0.006
	c-0.236-0.052-0.441-0.194-0.572-0.397c-0.137-0.21-0.181-0.467-0.12-0.711c0.049-0.238,0.192-0.444,0.398-0.574
	c0.318-0.193,0.719-0.184,1.028,0.022c0.102,0.067,0.189,0.154,0.256,0.257c0.067,0.104,0.113,0.22,0.134,0.343
	c0.02,0.118,0.018,0.239-0.007,0.357c-0.052,0.241-0.197,0.452-0.404,0.585C77.087,30.611,76.892,30.655,76.698,30.637z
	 M87.534,32.732c-0.431,0.278-1.006,0.154-1.285-0.278l-8.055-12.497c-0.279-0.432-0.154-1.007,0.278-1.284l10.936-7.05
	c0.431-0.278,1.006-0.154,1.285,0.278l8.055,12.498c0.278,0.431,0.154,1.006-0.278,1.285L87.534,32.732z M106.486,44.982
	l-4.686,3.021c-0.207,0.134-0.459,0.18-0.7,0.128s-0.452-0.198-0.585-0.405l-7.113-11.035c-0.278-0.431-0.153-1.007,0.278-1.285
	l4.688-3.021c0.207-0.134,0.459-0.18,0.701-0.128c0.241,0.052,0.452,0.198,0.585,0.405l7.112,11.035
	C107.041,44.129,106.917,44.704,106.486,44.982z M80.75,23.023l1.562-1.007l2.015,3.125l-1.562,1.007L80.75,23.023z M79.24,20.68
	l1.562-1.007l1.007,1.562l-1.562,1.007L79.24,20.68z M83.267,26.929l1.563-1.007l1.006,1.562l-1.562,1.007L83.267,26.929z
	 M74.207,41.542c-6.522-1.409-10.667-7.839-9.257-14.361c0.108-0.501-0.211-0.996-0.712-1.105c-0.502-0.108-0.996,0.211-1.104,0.712
	c-1.626,7.526,3.156,14.944,10.681,16.57c0.501,0.108,0.996-0.21,1.105-0.712C75.027,42.145,74.708,41.65,74.207,41.542z
	 M74.987,37.905c-2.169-0.467-4.063-1.778-5.266-3.643c-1.202-1.865-1.613-4.132-1.143-6.3c0.108-0.502-0.21-0.996-0.712-1.105
	s-0.997,0.211-1.105,0.712c-0.574,2.65-0.071,5.42,1.398,7.699c1.47,2.279,3.785,3.881,6.436,4.453
	c0.501,0.108,0.996-0.21,1.105-0.712C75.807,38.508,75.488,38.013,74.987,37.905z M75.695,34.63l-0.026-0.006
	c-2.494-0.55-4.073-3.014-3.531-5.51c0.111-0.501-0.206-0.997-0.707-1.108s-0.997,0.206-1.108,0.707
	c-0.764,3.502,1.455,6.96,4.957,7.727l0.028,0.006c0.501,0.108,0.996-0.21,1.105-0.712s-0.211-0.997-0.712-1.105L75.695,34.63z
	 M35.068,12.816H16.704c-1.563,0-2.834,1.271-2.834,2.834v36.826v1.457v13.489c0,1.563,1.271,2.834,2.834,2.834h35.109
	c1.563,0,2.834-1.271,2.834-2.834V15.65c0-1.563-1.271-2.834-2.834-2.834H38.824c-0.576,0-1.043,0.467-1.043,1.043
	s0.467,1.043,1.043,1.043h12.989c0.412,0,0.748,0.336,0.748,0.748v51.772c0,0.412-0.336,0.748-0.748,0.748H16.704
	c-0.412,0-0.748-0.336-0.748-0.748V54.775v-2.629V15.651c0-0.413,0.336-0.748,0.748-0.748h18.364c0.577,0,1.043-0.467,1.043-1.043
	C36.111,13.283,35.644,12.816,35.068,12.816z M39.774,6.314c0.576,0,1.043,0.467,1.043,1.043S40.35,8.4,39.774,8.4
	s-1.043-0.467-1.043-1.043S39.198,6.314,39.774,6.314z M28.411,8.311h6.924c0.576,0,1.043-0.467,1.043-1.043
	c0-0.577-0.467-1.043-1.043-1.043h-6.924c-0.576,0-1.043,0.467-1.043,1.043S27.835,8.311,28.411,8.311z M53.758,3.247H14.756
	c-2.562,0-4.648,2.085-4.648,4.648v29.088v2.32v8.923c0,0.575,0.467,1.043,1.043,1.043c0.577,0,1.043-0.467,1.043-1.043v-7.355
	v-3.888V7.895c0-1.413,1.15-2.562,2.562-2.562h8.629l0.884,4.525c0.173,0.884,0.953,1.525,1.853,1.525h16.396
	c0.922,0,1.704-0.659,1.86-1.567l0.773-4.483h8.607c1.414,0,2.563,1.149,2.563,2.562v61.44c0,1.413-1.149,2.562-2.563,2.562H14.756
	c-1.412,0-2.562-1.149-2.562-2.562V54.936c0-0.575-0.466-1.043-1.043-1.043c-0.576,0-1.043,0.467-1.043,1.043v14.399
	c0,2.564,2.086,4.648,4.648,4.648h39.002c2.564,0,4.649-2.085,4.649-4.648V7.895C58.407,5.332,56.322,3.247,53.758,3.247z
	 M42.35,9.297H26.285l-0.774-3.964h17.523L42.35,9.297z M22.162,17.252h-3.29c-0.576,0-1.043,0.467-1.043,1.043v3.206
	c0,0.576,0.467,1.043,1.043,1.043s1.043-0.467,1.043-1.043v-2.162h2.247c0.576,0,1.043-0.467,1.043-1.043
	C23.205,17.719,22.738,17.252,22.162,17.252z M50.874,18.295c0-0.576-0.467-1.043-1.043-1.043h-3.29
	c-0.576,0-1.043,0.467-1.043,1.043s0.467,1.043,1.043,1.043h2.247V21.5c0,0.576,0.467,1.043,1.043,1.043
	c0.576,0,1.043-0.467,1.043-1.043V18.295L50.874,18.295z M49.831,60.529c-0.576,0-1.043,0.467-1.043,1.043v2.162h-2.247
	c-0.576,0-1.043,0.467-1.043,1.043c0,0.577,0.467,1.043,1.043,1.043h3.29c0.576,0,1.043-0.467,1.043-1.043v-3.205
	C50.874,60.996,50.407,60.529,49.831,60.529z M18.872,60.529c-0.576,0-1.043,0.467-1.043,1.043v3.205
	c0,0.577,0.467,1.043,1.043,1.043h3.29c0.576,0,1.043-0.467,1.043-1.043s-0.467-1.043-1.043-1.043h-2.247v-2.162
	C19.915,60.996,19.448,60.529,18.872,60.529z M25.431,39.224l5.453,0.965l0.294,2.282c0.001,0.008,0.002,0.017,0.003,0.025
	c0.151,0.967,0.972,1.669,1.951,1.669h0.148v1.01l-7.041,0.909v-1.44c0-1.676-1.363-3.039-3.039-3.039h-1.183
	c-0.718,0-1.303,0.584-1.303,1.303v8.822c0,0.718,0.584,1.303,1.303,1.303H23.2c1.676,0,3.039-1.363,3.039-3.039v-2.043l7.291-0.942
	c0.913-0.118,1.602-0.902,1.602-1.823v-1.022h0.148c0.979,0,1.8-0.702,1.951-1.669c0.001-0.008,0.002-0.017,0.003-0.025l0.146-1.133
	l5.471,0.968c0.096,0.017,0.19,0.025,0.284,0.025c0.672,0,1.28-0.422,1.506-1.08l0.19-0.554l1.655,0.293
	c0.113,0.02,0.226,0.03,0.338,0.03c0.388,0,0.767-0.118,1.092-0.346c0.419-0.293,0.698-0.731,0.787-1.233l0.585-3.309
	c0.184-1.038-0.512-2.032-1.55-2.216l-0.813-0.144c-0.037-0.141-0.094-0.277-0.169-0.406c-0.238-0.403-0.638-0.681-1.098-0.762
	l-18.479-3.269c-0.866-0.153-1.698,0.427-1.852,1.295l-1.192,6.741c-0.074,0.42,0.019,0.844,0.264,1.194
	C24.645,38.916,25.011,39.15,25.431,39.224z M24.388,49.995c0,0.654-0.532,1.187-1.187,1.187h-0.635v-7.724h0.635
	c0.655,0,1.187,0.532,1.187,1.187V49.995z M35.402,42.216c-0.012,0.057-0.062,0.098-0.121,0.098h-1.065c-0.003,0-0.006,0-0.009,0
	s-0.007,0-0.01,0h-1.065c-0.059,0-0.108-0.041-0.121-0.098l-0.217-1.689l2.762,0.488L35.402,42.216z M46.585,35.593l0.832,0.147
	c0.033,0.006,0.055,0.038,0.049,0.07l-0.585,3.309c-0.001,0.006-0.004,0.025-0.025,0.039c-0.02,0.014-0.039,0.011-0.045,0.01
	l-1.37-0.243L46.585,35.593z M27.108,31.204l17.937,3.173l-2.083,6.068l-16.958-3L27.108,31.204z"/>
</svg>
