<?xml version="1.0" encoding="utf-8"?>
<!-- Generator: Adobe Illustrator 17.0.0, SVG Export Plug-In . SVG Version: 6.00 Build 0)  -->
<!DOCTYPE svg PUBLIC "-//W3C//DTD SVG 1.1//EN" "http://www.w3.org/Graphics/SVG/1.1/DTD/svg11.dtd">
<svg version="1.1" id="Capa_1" xmlns="http://www.w3.org/2000/svg" xmlns:xlink="http://www.w3.org/1999/xlink" x="0px" y="0px"
	 width="134.941px" height="80px" viewBox="0 0 134.941 80" enable-background="new 0 0 134.941 80" xml:space="preserve" fill="#51818C">
<path d="M91.442,11.575c0-3.868-2.997-7.074-6.857-7.335c-3.859-0.26-7.26,2.515-7.779,6.348c-0.52,3.832,2.02,7.413,5.81,8.189
	v14.711c-3.429,0.703-5.887,3.725-5.875,7.226c0.011,3.5,2.489,6.507,5.922,7.187l-0.042,14.702c-3.697,0.755-6.22,4.187-5.842,7.94
	c0.379,3.754,3.538,6.612,7.31,6.613c3.773,0.002,6.934-2.852,7.317-6.606c0.382-3.753-2.139-7.186-5.834-7.946l0.042-14.722
	c3.408-0.721,5.841-3.734,5.829-7.217c-0.011-3.482-2.464-6.479-5.875-7.178v-14.71C88.984,18.072,91.438,15.065,91.442,11.575z
	 M79.69,11.575c0-2.43,1.971-4.401,4.401-4.401s4.4,1.971,4.4,4.401s-1.97,4.4-4.4,4.4C81.661,15.972,79.693,14.004,79.69,11.575z
	 M88.49,69.807c0,2.43-1.97,4.4-4.4,4.4s-4.401-1.97-4.401-4.4c0-2.431,1.971-4.401,4.401-4.401
	C86.519,65.41,88.487,67.378,88.49,69.807z M88.49,40.691c0,2.43-1.97,4.4-4.4,4.4s-4.401-1.97-4.401-4.4
	c0-2.431,1.971-4.401,4.401-4.401C86.519,36.294,88.487,38.262,88.49,40.691z M97.854,73.123c-0.046-0.046-0.069-0.102-0.069-0.168
	v-5.113l-1.496,1.149c-0.04,0.033-0.089,0.05-0.149,0.05c-0.079,0-0.142-0.033-0.188-0.099l-0.426-0.555
	c-0.033-0.046-0.05-0.092-0.05-0.139c0-0.079,0.036-0.145,0.109-0.198l2.22-1.724c0.073-0.046,0.155-0.069,0.248-0.069h0.892
	c0.066,0,0.122,0.023,0.168,0.069s0.069,0.103,0.069,0.168v6.461c0,0.066-0.023,0.122-0.069,0.168s-0.103,0.069-0.168,0.069h-0.922
	C97.956,73.192,97.9,73.169,97.854,73.123z M101.54,73.128c-0.04-0.043-0.059-0.094-0.059-0.154c0-0.04,0.016-0.082,0.05-0.129
	l1.457-2.002c-0.112,0.027-0.251,0.04-0.416,0.04c-0.436-0.013-0.834-0.124-1.194-0.332s-0.646-0.486-0.857-0.832
	c-0.211-0.347-0.317-0.731-0.317-1.154c0-0.416,0.102-0.808,0.307-1.174c0.205-0.367,0.509-0.664,0.912-0.892
	s0.888-0.342,1.457-0.342c0.575,0,1.067,0.107,1.476,0.322s0.718,0.502,0.926,0.862s0.312,0.755,0.312,1.184
	c0,0.271-0.043,0.525-0.129,0.763s-0.183,0.444-0.292,0.619s-0.263,0.401-0.461,0.679l-1.734,2.408
	c-0.053,0.066-0.102,0.116-0.149,0.149c-0.046,0.033-0.109,0.05-0.188,0.05h-0.951C101.629,73.192,101.58,73.171,101.54,73.128z
	 M103.799,69.471c0.244-0.228,0.367-0.53,0.367-0.907c0-0.383-0.122-0.689-0.367-0.917c-0.245-0.228-0.548-0.342-0.912-0.342
	c-0.357,0-0.657,0.114-0.902,0.342c-0.244,0.228-0.367,0.534-0.367,0.917c0,0.377,0.12,0.679,0.362,0.907
	c0.241,0.228,0.543,0.342,0.907,0.342S103.555,69.699,103.799,69.471z M107.664,73.128c-0.04-0.043-0.059-0.094-0.059-0.154
	c0-0.04,0.016-0.082,0.05-0.129l1.457-2.002c-0.112,0.027-0.251,0.04-0.416,0.04c-0.436-0.013-0.834-0.124-1.194-0.332
	s-0.646-0.486-0.857-0.832c-0.212-0.347-0.317-0.731-0.317-1.154c0-0.416,0.102-0.808,0.307-1.174
	c0.205-0.367,0.509-0.664,0.912-0.892s0.888-0.342,1.457-0.342c0.575,0,1.067,0.107,1.476,0.322c0.41,0.215,0.718,0.502,0.927,0.862
	c0.208,0.36,0.312,0.755,0.312,1.184c0,0.271-0.043,0.525-0.129,0.763s-0.183,0.444-0.292,0.619s-0.263,0.401-0.461,0.679
	l-1.734,2.408c-0.053,0.066-0.103,0.116-0.149,0.149c-0.046,0.033-0.109,0.05-0.188,0.05h-0.951
	C107.753,73.192,107.703,73.171,107.664,73.128z M109.923,69.471c0.244-0.228,0.367-0.53,0.367-0.907
	c0-0.383-0.122-0.689-0.367-0.917c-0.244-0.228-0.548-0.342-0.912-0.342c-0.357,0-0.657,0.114-0.902,0.342
	c-0.245,0.228-0.367,0.534-0.367,0.917c0,0.377,0.12,0.679,0.362,0.907c0.241,0.228,0.543,0.342,0.907,0.342
	C109.375,69.813,109.678,69.699,109.923,69.471z M113.406,72.558c-0.433-0.489-0.669-1.13-0.709-1.922
	c-0.007-0.178-0.01-0.482-0.01-0.912c0-0.436,0.003-0.746,0.01-0.931c0.033-0.779,0.271-1.414,0.713-1.902
	c0.443-0.489,1.1-0.733,1.972-0.733s1.529,0.245,1.972,0.733c0.443,0.489,0.68,1.123,0.713,1.902c0.013,0.37,0.02,0.68,0.02,0.931
	s-0.007,0.555-0.02,0.912c-0.04,0.793-0.276,1.433-0.709,1.922s-1.092,0.733-1.977,0.733
	C114.497,73.291,113.838,73.047,113.406,72.558z M116.304,71.731c0.205-0.268,0.314-0.649,0.327-1.144
	c0.006-0.192,0.01-0.486,0.01-0.882s-0.003-0.684-0.01-0.862c-0.013-0.482-0.122-0.859-0.327-1.13
	c-0.205-0.271-0.512-0.41-0.922-0.416c-0.41,0.007-0.717,0.145-0.922,0.416c-0.205,0.271-0.314,0.647-0.327,1.13
	c-0.007,0.178-0.01,0.466-0.01,0.862c0,0.396,0.003,0.69,0.01,0.882c0.013,0.495,0.122,0.877,0.327,1.144
	c0.205,0.268,0.512,0.401,0.922,0.401S116.099,71.998,116.304,71.731z M95.793,43.087c-0.046-0.046-0.069-0.102-0.069-0.168v-0.515
	c0-0.185,0.083-0.34,0.248-0.466l1.546-1.536c0.469-0.37,0.831-0.672,1.085-0.907c0.254-0.234,0.444-0.451,0.57-0.649
	c0.125-0.198,0.188-0.393,0.188-0.585c0-0.31-0.083-0.555-0.248-0.733s-0.416-0.268-0.753-0.268c-0.33,0-0.59,0.098-0.778,0.292
	C97.393,37.747,97.276,38,97.23,38.31c-0.02,0.079-0.058,0.137-0.114,0.173s-0.117,0.054-0.183,0.054h-0.892
	c-0.059,0-0.109-0.02-0.149-0.059c-0.04-0.04-0.059-0.089-0.059-0.149c0.013-0.39,0.12-0.755,0.322-1.095
	c0.201-0.34,0.49-0.614,0.867-0.822c0.376-0.208,0.819-0.312,1.328-0.312c0.528,0,0.978,0.091,1.348,0.272
	c0.37,0.182,0.647,0.431,0.832,0.748s0.277,0.677,0.277,1.08c0,0.443-0.124,0.844-0.372,1.204c-0.248,0.36-0.633,0.745-1.154,1.154
	l-1.377,1.397h2.804c0.073,0,0.132,0.023,0.178,0.069s0.069,0.106,0.069,0.178v0.713c0,0.073-0.023,0.131-0.069,0.173
	c-0.046,0.043-0.106,0.064-0.178,0.064h-4.746C95.895,43.156,95.839,43.133,95.793,43.087z M102.704,42.522
	c-0.433-0.489-0.669-1.13-0.709-1.922c-0.007-0.178-0.01-0.482-0.01-0.912c0-0.436,0.003-0.746,0.01-0.931
	c0.033-0.779,0.271-1.414,0.713-1.902c0.443-0.489,1.1-0.733,1.972-0.733s1.529,0.245,1.972,0.733
	c0.443,0.489,0.68,1.123,0.713,1.902c0.013,0.37,0.02,0.68,0.02,0.931s-0.007,0.555-0.02,0.912c-0.04,0.793-0.276,1.433-0.709,1.922
	c-0.433,0.489-1.092,0.733-1.977,0.733C103.796,43.255,103.137,43.011,102.704,42.522z M105.603,41.694
	c0.205-0.268,0.314-0.649,0.327-1.144c0.006-0.192,0.01-0.486,0.01-0.882s-0.003-0.684-0.01-0.862
	c-0.013-0.482-0.122-0.859-0.327-1.13s-0.512-0.41-0.922-0.416c-0.41,0.007-0.717,0.145-0.922,0.416
	c-0.205,0.271-0.314,0.647-0.327,1.13c-0.007,0.178-0.01,0.466-0.01,0.862s0.003,0.69,0.01,0.882
	c0.013,0.495,0.122,0.877,0.327,1.144c0.205,0.268,0.512,0.401,0.922,0.401C105.091,42.096,105.398,41.962,105.603,41.694z
	 M109.234,42.522c-0.433-0.489-0.669-1.13-0.709-1.922c-0.007-0.178-0.01-0.482-0.01-0.912c0-0.436,0.003-0.746,0.01-0.931
	c0.033-0.779,0.271-1.414,0.713-1.902c0.443-0.489,1.1-0.733,1.972-0.733s1.529,0.245,1.972,0.733
	c0.443,0.489,0.68,1.123,0.713,1.902c0.013,0.37,0.02,0.68,0.02,0.931s-0.007,0.555-0.02,0.912c-0.04,0.793-0.276,1.433-0.709,1.922
	c-0.433,0.489-1.092,0.733-1.977,0.733C110.326,43.255,109.667,43.011,109.234,42.522z M112.133,41.694
	c0.205-0.268,0.314-0.649,0.327-1.144c0.006-0.192,0.01-0.486,0.01-0.882s-0.003-0.684-0.01-0.862
	c-0.013-0.482-0.122-0.859-0.327-1.13s-0.512-0.41-0.922-0.416c-0.41,0.007-0.717,0.145-0.921,0.416
	c-0.205,0.271-0.314,0.647-0.327,1.13c-0.007,0.178-0.01,0.466-0.01,0.862s0.003,0.69,0.01,0.882
	c0.013,0.495,0.122,0.877,0.327,1.144c0.205,0.268,0.512,0.401,0.921,0.401C111.621,42.096,111.928,41.962,112.133,41.694z
	 M115.764,42.522c-0.433-0.489-0.669-1.13-0.709-1.922c-0.007-0.178-0.01-0.482-0.01-0.912c0-0.436,0.003-0.746,0.01-0.931
	c0.033-0.779,0.271-1.414,0.713-1.902c0.443-0.489,1.1-0.733,1.972-0.733s1.529,0.245,1.972,0.733
	c0.443,0.489,0.68,1.123,0.713,1.902c0.013,0.37,0.02,0.68,0.02,0.931s-0.007,0.555-0.02,0.912c-0.04,0.793-0.276,1.433-0.709,1.922
	c-0.433,0.489-1.092,0.733-1.977,0.733C116.856,43.255,116.197,43.011,115.764,42.522z M118.663,41.694
	c0.205-0.268,0.314-0.649,0.327-1.144c0.006-0.192,0.01-0.486,0.01-0.882s-0.003-0.684-0.01-0.862
	c-0.013-0.482-0.122-0.859-0.327-1.13s-0.512-0.41-0.922-0.416c-0.41,0.007-0.717,0.145-0.921,0.416
	c-0.205,0.271-0.314,0.647-0.327,1.13c-0.007,0.178-0.01,0.466-0.01,0.862s0.003,0.69,0.01,0.882
	c0.013,0.495,0.122,0.877,0.327,1.144c0.205,0.268,0.512,0.401,0.921,0.401C118.151,42.096,118.458,41.962,118.663,41.694z
	 M96.61,13.243c-0.499-0.466-0.765-1.128-0.798-1.987c-0.007-0.178-0.01-0.469-0.01-0.872c0-0.41,0.003-0.707,0.01-0.892
	c0.033-0.846,0.3-1.505,0.803-1.977c0.502-0.472,1.205-0.709,2.111-0.709c0.588,0,1.1,0.101,1.536,0.302
	c0.436,0.202,0.774,0.477,1.016,0.827c0.241,0.35,0.368,0.743,0.381,1.179v0.02c0,0.053-0.021,0.097-0.064,0.134
	c-0.043,0.036-0.091,0.054-0.144,0.054h-0.961c-0.079,0-0.139-0.018-0.178-0.054c-0.04-0.036-0.073-0.101-0.099-0.193
	c-0.099-0.41-0.271-0.699-0.515-0.867c-0.245-0.168-0.568-0.253-0.971-0.253c-0.945,0-1.437,0.529-1.476,1.585
	c-0.007,0.178-0.01,0.453-0.01,0.822c0,0.37,0.003,0.651,0.01,0.842c0.04,1.057,0.532,1.585,1.476,1.585
	c0.396,0,0.718-0.084,0.966-0.253c0.248-0.168,0.421-0.457,0.52-0.867c0.026-0.092,0.059-0.157,0.099-0.193s0.099-0.054,0.178-0.054
	h0.961c0.059,0,0.11,0.02,0.154,0.059c0.043,0.04,0.061,0.089,0.054,0.149c-0.013,0.436-0.14,0.829-0.381,1.179
	s-0.58,0.626-1.016,0.827c-0.436,0.202-0.948,0.302-1.536,0.302C97.814,13.941,97.109,13.708,96.61,13.243z M103.19,13.307
	c-0.433-0.423-0.662-1.024-0.689-1.803l-0.01-0.248c0-0.826,0.216-1.476,0.649-1.952s1.032-0.713,1.798-0.713
	c0.786,0,1.392,0.238,1.818,0.713c0.426,0.476,0.639,1.11,0.639,1.902v0.208c0,0.066-0.023,0.122-0.069,0.168
	c-0.046,0.046-0.106,0.069-0.178,0.069h-3.29v0.079c0.013,0.37,0.114,0.676,0.302,0.917s0.447,0.362,0.778,0.362
	c0.377,0,0.684-0.152,0.922-0.456c0.059-0.073,0.106-0.117,0.139-0.134c0.033-0.016,0.089-0.025,0.168-0.025h0.872
	c0.059,0,0.111,0.017,0.154,0.049c0.043,0.033,0.064,0.079,0.064,0.139c0,0.159-0.094,0.345-0.282,0.56
	c-0.188,0.215-0.457,0.401-0.808,0.56c-0.35,0.159-0.756,0.238-1.219,0.238C104.209,13.941,103.623,13.73,103.19,13.307z
	 M106.029,10.81v-0.02c0-0.39-0.098-0.702-0.292-0.936c-0.195-0.234-0.461-0.352-0.798-0.352s-0.601,0.117-0.793,0.352
	c-0.192,0.235-0.287,0.547-0.287,0.936v0.02H106.029z M108.516,13.773c-0.046-0.046-0.069-0.102-0.069-0.168V8.927
	c0-0.073,0.023-0.13,0.069-0.173s0.102-0.064,0.168-0.064h3.141c0.073,0,0.13,0.021,0.173,0.064s0.064,0.101,0.064,0.173v0.585
	c0,0.066-0.022,0.122-0.064,0.168c-0.043,0.046-0.101,0.069-0.173,0.069h-2.061v3.855c0,0.066-0.023,0.122-0.069,0.168
	c-0.046,0.046-0.103,0.069-0.169,0.069h-0.842C108.618,13.842,108.562,13.819,108.516,13.773z M113.262,13.347
	c-0.423-0.396-0.651-0.945-0.684-1.645l-0.01-0.436l0.01-0.436c0.033-0.694,0.264-1.24,0.694-1.64
	c0.429-0.4,1.027-0.599,1.794-0.599c0.76,0,1.354,0.2,1.784,0.599c0.429,0.4,0.66,0.946,0.694,1.64
	c0.006,0.079,0.01,0.225,0.01,0.436c0,0.211-0.003,0.357-0.01,0.436c-0.033,0.7-0.261,1.249-0.684,1.645
	c-0.423,0.396-1.021,0.595-1.793,0.595C114.286,13.941,113.685,13.743,113.262,13.347z M115.873,12.613
	c0.188-0.218,0.289-0.538,0.302-0.961c0.006-0.066,0.01-0.195,0.01-0.386c0-0.192-0.003-0.32-0.01-0.386
	c-0.013-0.423-0.116-0.745-0.307-0.966c-0.192-0.221-0.459-0.332-0.803-0.332c-0.35,0-0.621,0.111-0.813,0.332
	s-0.294,0.544-0.307,0.966l-0.01,0.386l0.01,0.386c0.013,0.423,0.116,0.743,0.307,0.961c0.192,0.218,0.462,0.327,0.813,0.327
	C115.416,12.94,115.685,12.831,115.873,12.613z M118.286,14.868c-0.046-0.043-0.069-0.101-0.069-0.173V13.02
	c0-0.073,0.023-0.13,0.069-0.173s0.102-0.064,0.168-0.064h0.079c0.258,0,0.446-0.205,0.565-0.614
	c0.119-0.41,0.178-1.044,0.178-1.903V8.927c0-0.073,0.023-0.13,0.069-0.173s0.102-0.064,0.168-0.064h3.548
	c0.073,0,0.13,0.021,0.173,0.064s0.064,0.101,0.064,0.173v3.845h0.446c0.073,0,0.13,0.022,0.173,0.064
	c0.043,0.043,0.065,0.101,0.065,0.173v1.685c0,0.073-0.022,0.13-0.065,0.173s-0.101,0.064-0.173,0.064h-0.842
	c-0.066,0-0.122-0.021-0.168-0.064s-0.069-0.101-0.069-0.173v-0.852h-3.131v0.852c0,0.073-0.021,0.13-0.064,0.173
	s-0.101,0.064-0.173,0.064h-0.842C118.388,14.932,118.332,14.911,118.286,14.868z M121.982,12.772V9.75h-1.447v0.664
	c0,1.136-0.152,1.926-0.456,2.368L121.982,12.772z M124.955,13.773c-0.046-0.046-0.069-0.102-0.069-0.168V8.927
	c0-0.073,0.023-0.13,0.069-0.173s0.102-0.064,0.168-0.064h0.842c0.066,0,0.122,0.023,0.169,0.069
	c0.046,0.046,0.069,0.103,0.069,0.168v1.764h2.21V8.927c0-0.066,0.023-0.122,0.069-0.168c0.046-0.046,0.102-0.069,0.168-0.069h0.842
	c0.073,0,0.13,0.021,0.173,0.064s0.065,0.101,0.065,0.173v4.677c0,0.066-0.022,0.122-0.065,0.168
	c-0.043,0.046-0.101,0.069-0.173,0.069h-0.842c-0.066,0-0.122-0.023-0.168-0.069c-0.046-0.046-0.069-0.102-0.069-0.168v-1.853h-2.21
	v1.853c0,0.066-0.023,0.122-0.069,0.168c-0.046,0.046-0.103,0.069-0.169,0.069h-0.842C125.057,13.842,125.001,13.819,124.955,13.773
	z M135.374,8.754c0.043,0.043,0.064,0.101,0.064,0.173v4.677c0,0.066-0.022,0.122-0.064,0.168c-0.043,0.046-0.101,0.069-0.173,0.069
	h-0.862c-0.066,0-0.122-0.023-0.168-0.069c-0.046-0.046-0.069-0.102-0.069-0.168v-1.506h-0.882l-0.961,1.595
	c-0.059,0.099-0.142,0.149-0.248,0.149h-0.852c-0.053,0-0.099-0.02-0.139-0.059c-0.04-0.04-0.059-0.086-0.059-0.139
	c0-0.059,0.02-0.112,0.059-0.159l1.04-1.625c-0.311-0.132-0.545-0.327-0.703-0.585c-0.159-0.258-0.238-0.561-0.238-0.912
	c0-0.555,0.173-0.973,0.52-1.253c0.347-0.281,0.854-0.421,1.521-0.421h2.041C135.273,8.69,135.331,8.711,135.374,8.754z
	 M134.12,9.641h-0.931c-0.311,0-0.535,0.055-0.674,0.163s-0.208,0.296-0.208,0.56c0,0.245,0.069,0.436,0.208,0.575
	s0.344,0.208,0.614,0.208h0.991V9.641z M47.532,44.294h-1.239v-1.239c0-4.788-3.882-8.67-8.67-8.67c-4.789,0-8.67,3.882-8.67,8.67
	v1.239h-1.239c-0.684,0-1.239,0.555-1.239,1.239v17.34c0,0.684,0.555,1.239,1.239,1.239h19.817c0.684,0,1.239-0.555,1.239-1.239
	v-17.34C48.77,44.849,48.216,44.294,47.532,44.294z M31.43,43.055c0-3.42,2.772-6.193,6.193-6.193c3.42,0,6.193,2.773,6.193,6.193
	v1.239H31.43V43.055z M46.293,61.634h-17.34V46.771h17.34V61.634z M37.623,48.01c-1.808-0.003-3.354,1.298-3.661,3.079
	c-0.306,1.782,0.717,3.525,2.422,4.125v3.943c0,0.684,0.555,1.239,1.239,1.239s1.239-0.555,1.239-1.239v-3.943
	c1.705-0.601,2.728-2.343,2.422-4.125C40.977,49.308,39.431,48.007,37.623,48.01z M37.623,52.964c-0.684,0-1.239-0.555-1.239-1.239
	c0-0.684,0.555-1.239,1.239-1.239s1.239,0.555,1.239,1.239C38.862,52.41,38.307,52.964,37.623,52.964z M59.918,17.045
	c-0.841,0.001-1.681,0.072-2.51,0.215C56.97,10.37,52.19,4.526,45.523,2.732c-6.666-1.794-13.735,0.861-17.571,6.601
	C26.73,8.7,25.374,8.372,23.999,8.375c-4.786,0.007-8.664,3.884-8.67,8.67c-8.209,0-14.863,6.654-14.863,14.863
	S7.12,46.771,15.329,46.771h0.031c0.145,3.988,1.026,7.916,2.601,11.583c3.61,8.449,10.59,15.002,19.25,18.072
	c0.267,0.095,0.558,0.095,0.825,0c8.642-3.058,15.613-9.589,19.228-18.013c1.595-3.682,2.485-7.632,2.624-11.643h0.031
	c0.46,0,0.905-0.026,1.349-0.067c7.888-0.751,13.8-7.556,13.44-15.471S67.841,17.077,59.918,17.045z M54.989,57.432
	c-3.283,7.65-9.56,13.618-17.366,16.51c-7.823-2.901-14.111-8.888-17.391-16.561c-1.607-3.743-2.433-7.775-2.426-11.849V32.347
	c6.767,1.781,13.978,0.097,19.257-4.497l0.56-0.489l0.558,0.488c5.277,4.601,12.49,6.286,19.259,4.498v13.186
	C57.451,49.626,56.617,53.677,54.989,57.432z M61.042,44.237c-0.371,0.034-0.743,0.057-1.124,0.057V30.67
	c0-0.398-0.192-0.772-0.514-1.005c-0.097-0.068-0.203-0.121-0.314-0.158c-0.031-0.011-0.061-0.017-0.092-0.026
	c-0.085-0.022-0.172-0.036-0.26-0.041c-0.02,0-0.039-0.009-0.058-0.009c-0.02,0-0.025,0-0.037,0
	c-0.12,0.002-0.238,0.021-0.353,0.057l-0.372,0.123c-6.252,2.079-13.136,0.697-18.1-3.633l-1.376-1.202
	c-0.466-0.408-1.163-0.408-1.63,0l-1.376,1.202c-4.966,4.33-11.852,5.714-18.106,3.639l-0.371-0.124
	c-0.378-0.126-0.793-0.062-1.116,0.171c-0.322,0.233-0.513,0.607-0.513,1.005v13.624c-6.841,0-12.386-5.545-12.386-12.386
	c0-6.84,5.545-12.386,12.386-12.386c0.409,0,0.818,0.022,1.225,0.067c0.394,0.044,0.785-0.103,1.052-0.396s0.378-0.696,0.299-1.084
	c-0.068-0.351-0.102-0.707-0.098-1.064c0.004-3.418,2.774-6.189,6.193-6.193c1.304-0.006,2.575,0.409,3.624,1.183
	c0.286,0.212,0.65,0.29,0.997,0.215s0.646-0.296,0.82-0.606c3.022-5.419,9.324-8.112,15.329-6.55
	c6.005,1.563,10.196,6.985,10.194,13.19c0,0.144,0,0.289-0.01,0.435c-0.028,0.403,0.142,0.793,0.455,1.047
	c0.313,0.255,0.731,0.34,1.119,0.23c3.736-1.063,7.754-0.312,10.854,2.028s4.922,6,4.922,9.884
	C72.34,38.326,67.437,43.694,61.042,44.237z"/>
</svg>
