<?xml version="1.0" encoding="utf-8"?>
<!-- Generator: Adobe Illustrator 17.0.0, SVG Export Plug-In . SVG Version: 6.00 Build 0)  -->
<!DOCTYPE svg PUBLIC "-//W3C//DTD SVG 1.1//EN" "http://www.w3.org/Graphics/SVG/1.1/DTD/svg11.dtd" [
	<!ENTITY ns_extend "http://ns.adobe.com/Extensibility/1.0/">
	<!ENTITY ns_ai "http://ns.adobe.com/AdobeIllustrator/10.0/">
	<!ENTITY ns_graphs "http://ns.adobe.com/Graphs/1.0/">
	<!ENTITY ns_vars "http://ns.adobe.com/Variables/1.0/">
	<!ENTITY ns_imrep "http://ns.adobe.com/ImageReplacement/1.0/">
	<!ENTITY ns_sfw "http://ns.adobe.com/SaveForWeb/1.0/">
	<!ENTITY ns_custom "http://ns.adobe.com/GenericCustomNamespace/1.0/">
	<!ENTITY ns_adobe_xpath "http://ns.adobe.com/XPath/1.0/">
]>
<svg fill="#006473" version="1.1" id="OBJECT" xmlns:x="&ns_extend;" xmlns:i="&ns_ai;" xmlns:graph="&ns_graphs;"
	 xmlns="http://www.w3.org/2000/svg" xmlns:xlink="http://www.w3.org/1999/xlink" x="0px" y="0px" width="59.563px"
	 height="29.934px" viewBox="0 0 59.563 29.934" enable-background="new 0 0 59.563 29.934" xml:space="preserve">
<metadata>
	<sfw  xmlns="&ns_sfw;">
		<slices></slices>
		<sliceSourceBounds  width="59.563" height="29.934" x="394.719" y="410.534" bottomLeftOrigin="true"></sliceSourceBounds>
	</sfw>
</metadata>
<g>
	<path d="M58.604,12.634l-11.68-11.68c-1.142-1.141-3.019-1.311-4.22-0.229c-1.279,1.15-1.318,3.123-0.116,4.326l5.294,5.295
		c0.598,0.598,0.175,1.619-0.671,1.619h-19.09c-1.615,0-3.062,1.209-3.146,2.822c-0.09,1.719,1.277,3.143,2.978,3.143h19.259
		c0.846,0,1.269,1.022,0.671,1.619l-5.175,5.176c-1.142,1.141-1.31,3.02-0.229,4.219c1.152,1.279,3.125,1.318,4.327,0.117
		l11.799-11.799C59.883,15.984,59.883,13.911,58.604,12.634z"/>
	<path d="M16.904,11.966h-3.437c-1.646,0-2.982,1.336-2.982,2.982s1.336,2.982,2.982,2.982h3.437c1.646,0,2.981-1.336,2.981-2.982
		S18.551,11.966,16.904,11.966z"/>
	<path d="M3.303,11.966H2.981C1.335,11.966,0,13.302,0,14.949s1.335,2.982,2.981,2.982h0.321c1.648,0,2.981-1.336,2.981-2.982
		S4.95,11.966,3.303,11.966z"/>
</g>
</svg>
