<?xml version="1.0" encoding="utf-8"?>
<!-- Generator: Adobe Illustrator 17.0.0, SVG Export Plug-In . SVG Version: 6.00 Build 0)  -->
<!DOCTYPE svg PUBLIC "-//W3C//DTD SVG 1.1//EN" "http://www.w3.org/Graphics/SVG/1.1/DTD/svg11.dtd" [
	<!ENTITY ns_extend "http://ns.adobe.com/Extensibility/1.0/">
	<!ENTITY ns_ai "http://ns.adobe.com/AdobeIllustrator/10.0/">
	<!ENTITY ns_graphs "http://ns.adobe.com/Graphs/1.0/">
	<!ENTITY ns_vars "http://ns.adobe.com/Variables/1.0/">
	<!ENTITY ns_imrep "http://ns.adobe.com/ImageReplacement/1.0/">
	<!ENTITY ns_sfw "http://ns.adobe.com/SaveForWeb/1.0/">
	<!ENTITY ns_custom "http://ns.adobe.com/GenericCustomNamespace/1.0/">
	<!ENTITY ns_adobe_xpath "http://ns.adobe.com/XPath/1.0/">
]>
<svg fill="#01E2B6" version="1.1" id="rov_x5F_15" xmlns:x="&ns_extend;" xmlns:i="&ns_ai;" xmlns:graph="&ns_graphs;"
	 xmlns="http://www.w3.org/2000/svg" xmlns:xlink="http://www.w3.org/1999/xlink" x="0px" y="0px" width="16px" height="12px"
	 viewBox="0 0 16 12" enable-background="new 0 0 16 12" xml:space="preserve">
<metadata>
	<sfw  xmlns="&ns_sfw;">
		<slices></slices>
		<sliceSourceBounds  width="16" height="12" x="-48.5" y="708.365" bottomLeftOrigin="true"></sliceSourceBounds>
	</sfw>
</metadata>
<g id="message_x5F_2_1_">
	<g>
		<path fill-rule="evenodd" clip-rule="evenodd" d="M14,0H2C0.895,0,0,0.895,0,2v8c0,1.104,0.895,2,2,2h12c1.105,0,2-0.896,2-2V2
			C16,0.895,15.105,0,14,0z M12.438,2L8,5.698L3.562,2H12.438z M14,10H2V3.302l5.36,4.467C7.545,7.923,7.772,8,8,8
			s0.455-0.077,0.64-0.231L14,3.302V10z"/>
	</g>
</g>
</svg>
