<?xml version="1.0" encoding="utf-8"?>
<!-- Generator: Adobe Illustrator 17.0.0, SVG Export Plug-In . SVG Version: 6.00 Build 0)  -->
<!DOCTYPE svg PUBLIC "-//W3C//DTD SVG 1.1//EN" "http://www.w3.org/Graphics/SVG/1.1/DTD/svg11.dtd" [
	<!ENTITY ns_extend "http://ns.adobe.com/Extensibility/1.0/">
	<!ENTITY ns_ai "http://ns.adobe.com/AdobeIllustrator/10.0/">
	<!ENTITY ns_graphs "http://ns.adobe.com/Graphs/1.0/">
	<!ENTITY ns_vars "http://ns.adobe.com/Variables/1.0/">
	<!ENTITY ns_imrep "http://ns.adobe.com/ImageReplacement/1.0/">
	<!ENTITY ns_sfw "http://ns.adobe.com/SaveForWeb/1.0/">
	<!ENTITY ns_custom "http://ns.adobe.com/GenericCustomNamespace/1.0/">
	<!ENTITY ns_adobe_xpath "http://ns.adobe.com/XPath/1.0/">
]>
<svg fill="#01E2B6" version="1.1" id="rov_x5F_20" xmlns:x="&ns_extend;" xmlns:i="&ns_ai;" xmlns:graph="&ns_graphs;"
	 xmlns="http://www.w3.org/2000/svg" xmlns:xlink="http://www.w3.org/1999/xlink" x="0px" y="0px" width="16.004px" height="16px"
	 viewBox="0 0 16.004 16" enable-background="new 0 0 16.004 16" xml:space="preserve">
<metadata>
	<sfw  xmlns="&ns_sfw;">
		<slices></slices>
		<sliceSourceBounds  width="16.004" height="16" x="61.121" y="672.595" bottomLeftOrigin="true"></sliceSourceBounds>
	</sfw>
</metadata>
<g id="phone">
	<path fill-rule="evenodd" clip-rule="evenodd" d="M14.635,9.103l-3.001-1C11.426,8.033,11.213,8,11.002,8
		c-0.74,0-1.443,0.413-1.789,1.106L8.849,9.833C8.223,9.647,7.652,9.307,7.182,8.833C6.699,8.354,6.356,7.78,6.168,7.153
		l0.727-0.364c0.89-0.445,1.318-1.477,1.003-2.421l-1-3C6.619,0.53,5.839,0,5.001,0C4.792,0,4.58,0.033,4.371,0.102l-2.32,0.77
		C1.516,1.05,1.081,1.444,0.853,1.958C0.287,3.231,0,4.591,0,6c0,1.577,0.355,3.078,1.055,4.462c0.123,0.258,0.254,0.5,0.389,0.721
		c0.413,0.688,0.92,1.331,1.498,1.897c0.098,0.098,0.213,0.212,0.34,0.327C5.122,15.077,7.51,16,10.002,16
		c1.41,0,2.77-0.287,4.043-0.852c0.515-0.229,0.909-0.663,1.086-1.198l0.77-2.32C16.249,10.583,15.683,9.452,14.635,9.103z
		 M13.233,13.32c-0.99,0.44-2.08,0.68-3.231,0.68c-2.07,0-3.961-0.79-5.381-2.08c-0.1-0.09-0.19-0.18-0.28-0.27
		c-0.46-0.45-0.86-0.96-1.19-1.51c-0.11-0.18-0.21-0.37-0.3-0.56C2.3,8.5,2,7.29,2,6c0-1.15,0.24-2.24,0.68-3.23L5.001,2l1,3l-2,1
		c0,1.66,0.67,3.16,1.76,4.24C6.841,11.33,8.342,12,10.002,12l1-2l3.001,1L13.233,13.32z"/>
</g>
</svg>
