<?xml version="1.0" encoding="utf-8"?>
<!-- Generator: Adobe Illustrator 17.0.0, SVG Export Plug-In . SVG Version: 6.00 Build 0)  -->
<!DOCTYPE svg PUBLIC "-//W3C//DTD SVG 1.1//EN" "http://www.w3.org/Graphics/SVG/1.1/DTD/svg11.dtd">
<svg version="1.1" id="objects" xmlns="http://www.w3.org/2000/svg" xmlns:xlink="http://www.w3.org/1999/xlink" x="0px" y="0px"
	 width="15px" height="15px" viewBox="2.5 2.5 15 15" enable-background="new 2.5 2.5 15 15" xml:space="preserve">
<g>
	<path fill="#006473" d="M13.23,2.5H6.769C4.415,2.5,2.5,4.415,2.5,6.769v6.462c0,2.354,1.915,4.269,4.269,4.269h6.462
		c2.353,0,4.269-1.915,4.269-4.27V6.769C17.5,4.415,15.584,2.5,13.23,2.5z M16.213,13.231c0,1.644-1.337,2.983-2.983,2.983H6.769
		c-1.645,0-2.984-1.337-2.984-2.983V6.77c0-1.645,1.338-2.984,2.984-2.984l6.461-0.001c1.644,0,2.983,1.339,2.983,2.984V13.231z"/>
	<path fill="#006473" d="M10,6.159c-2.118,0-3.841,1.723-3.841,3.841S7.882,13.841,10,13.841s3.841-1.723,3.841-3.841
		S12.118,6.159,10,6.159z M10,12.555c-1.409,0-2.555-1.146-2.555-2.555S8.591,7.445,10,7.445S12.555,8.591,12.555,10
		S11.409,12.555,10,12.555z"/>
	<circle fill="#006473" cx="14.006" cy="5.939" r="0.923"/>
</g>
</svg>
