<?xml version="1.0" encoding="utf-8"?>
<!-- Generator: Adobe Illustrator 17.0.0, SVG Export Plug-In . SVG Version: 6.00 Build 0)  -->
<!DOCTYPE svg PUBLIC "-//W3C//DTD SVG 1.1//EN" "http://www.w3.org/Graphics/SVG/1.1/DTD/svg11.dtd" [
	<!ENTITY ns_extend "http://ns.adobe.com/Extensibility/1.0/">
	<!ENTITY ns_ai "http://ns.adobe.com/AdobeIllustrator/10.0/">
	<!ENTITY ns_graphs "http://ns.adobe.com/Graphs/1.0/">
	<!ENTITY ns_vars "http://ns.adobe.com/Variables/1.0/">
	<!ENTITY ns_imrep "http://ns.adobe.com/ImageReplacement/1.0/">
	<!ENTITY ns_sfw "http://ns.adobe.com/SaveForWeb/1.0/">
	<!ENTITY ns_custom "http://ns.adobe.com/GenericCustomNamespace/1.0/">
	<!ENTITY ns_adobe_xpath "http://ns.adobe.com/XPath/1.0/">
]>
<svg fill="#01E2B6" version="1.1" id="Capa_1" xmlns:x="&ns_extend;" xmlns:i="&ns_ai;" xmlns:graph="&ns_graphs;"
	 xmlns="http://www.w3.org/2000/svg" xmlns:xlink="http://www.w3.org/1999/xlink" x="0px" y="0px" width="11.896px"
	 height="22.001px" viewBox="42.115 37.061 11.896 22.001" enable-background="new 42.115 37.061 11.896 22.001"
	 xml:space="preserve">
<metadata>
	<sfw  xmlns="&ns_sfw;">
		<slices></slices>
		<sliceSourceBounds  width="11.896" height="22.001" x="341.668" y="348.438" bottomLeftOrigin="true"></sliceSourceBounds>
	</sfw>
</metadata>
<g>
	<path d="M53.561,37.066l-2.853-0.005c-3.205,0-5.276,2.125-5.276,5.414v2.496h-2.868c-0.248,0-0.449,0.201-0.449,0.449v3.617
		c0,0.248,0.201,0.449,0.449,0.449h2.868v9.127c0,0.248,0.201,0.449,0.449,0.449h3.743c0.248,0,0.449-0.201,0.449-0.449v-9.127
		h3.354c0.248,0,0.449-0.201,0.449-0.449l0.001-3.617c0-0.119-0.047-0.233-0.131-0.317s-0.198-0.132-0.317-0.132h-3.355v-2.116
		c0-1.017,0.242-1.533,1.567-1.533l1.922-0.001c0.248,0,0.448-0.201,0.448-0.449v-3.358C54.009,37.267,53.808,37.067,53.561,37.066z
		"/>
</g>
</svg>
